<?xml version="1.0" encoding="utf-8"?>
<!-- Generator: Adobe Illustrator 18.1.1, SVG Export Plug-In . SVG Version: 6.00 Build 0)  -->
<svg version="1.1" id="Layer_1" xmlns="http://www.w3.org/2000/svg" xmlns:xlink="http://www.w3.org/1999/xlink" x="0px" y="0px"
	 viewBox="0 0 787 473" style="enable-background:new 0 0 787 473;" xml:space="preserve">
<style type="text/css">
	.st0{fill:none;}
	.st1{stroke:#FFFFFF;stroke-miterlimit:10;}
	.st2{fill:#C9CACC;}
	.st3{display:none;}
	.st4{display:inline;}
	.st5{fill:#A31E23;}
	.st6{fill:#FFFFFF;}
</style>
<rect id="background" x="-0.2" y="1" class="st0" width="787.8" height="473.8"/>
<rect id="federal" x="303.1" y="63" class="st1" width="181.7" height="34.9"/>
<path id="sales" class="st1" d="M303.1,43.6h180.8c3.9,0-1.5-5.8-3.4-7.6c-0.6-0.5-1.2-1-1.8-1.4L464,24.9c-2-1.3-4.3-2-6.7-2H333.5
	c-2.2,0-4.3,0.6-6.2,1.7L313,33.2C313,33.2,300.4,40.1,303.1,43.6z"/>
<path class="st2" d="M331.3,21.9h128.6c0.6,0,1.1-0.5,1.1-1.1v-0.5c0-2.2-1.8-4-4-4H333.3c-1.8,0-3.2,1.4-3.2,3.2v1.3
	C330.2,21.4,330.7,21.9,331.3,21.9z"/>
<path id="state" class="st1" d="M303.5,63h181c0.2,0,0.3-0.2,0.3-0.4V44c0-0.2-0.2-0.4-0.3-0.4h-181c-0.2,0-0.3,0.2-0.3,0.4v18.6
	C303.1,62.8,303.3,63,303.5,63z"/>
<path id="revenue" class="st1" d="M305.2,455.3h178.1c0.9,0,1.6-0.7,1.6-1.6V97.9H303.1v355.4C303.1,454.4,304,455.3,305.2,455.3z"
	/>
<path class="st2" d="M308.6,460.2h170.2l4.8-2.7c1-0.6,0.6-2.2-0.6-2.2l-177.5,0c-1.1,0-1.5,1.4-0.7,2L308.6,460.2z"/>
<g id="sales-text" class="st3">
	<g class="st4">
		<rect x="101.4" y="12.3" class="st0" width="123.5" height="35"/>
		<path class="st5" d="M110.3,41.2c1.3,1.2,2.9,2,4.8,2.4V30.8c-1.7-0.4-3.2-0.9-4.4-1.4c-1.2-0.5-2.3-1.1-3.1-1.8
			c-0.8-0.7-1.4-1.5-1.8-2.5c-0.4-1-0.6-2.2-0.6-3.6c0-1.4,0.3-2.8,0.8-4c0.5-1.2,1.2-2.2,2.1-3.1c0.9-0.9,1.9-1.6,3.1-2.1
			c1.2-0.5,2.5-0.8,3.9-0.9V8.3h2.6v3.2c2.6,0.3,4.7,1.3,6.2,2.9c1.5,1.6,2.6,3.8,3.3,6.6h-4.1c-0.6-3.2-2.4-5-5.4-5.6v11.8l2.9,0.8
			c0.6,0.2,1.4,0.4,2.3,0.8c0.9,0.4,1.7,1,2.5,1.7c0.8,0.7,1.5,1.6,2,2.6c0.6,1.1,0.8,2.3,0.8,3.8c0,1.6-0.3,3-0.8,4.2
			c-0.5,1.2-1.3,2.3-2.2,3.1c-0.9,0.9-2,1.6-3.3,2.1c-1.3,0.5-2.7,0.8-4.2,1v3.9h-2.6v-3.9c-3.2-0.3-5.7-1.4-7.6-3.3
			c-1.9-1.9-3-4.5-3.2-7.9h4.1C108.4,38.2,109.1,39.9,110.3,41.2z M111.2,16.9c-1.1,0.9-1.6,2.3-1.6,4.2c0,0.8,0.1,1.5,0.4,2.1
			c0.3,0.6,0.7,1.1,1.2,1.5c0.5,0.4,1.1,0.7,1.8,1c0.7,0.3,1.4,0.5,2.2,0.8V15.3C113.6,15.5,112.3,16,111.2,16.9z M120.2,43
			c0.8-0.3,1.4-0.6,2-1.1c0.6-0.5,1-1.1,1.3-1.9c0.3-0.8,0.5-1.6,0.5-2.7c0-0.9-0.2-1.7-0.5-2.3c-0.3-0.6-0.8-1.2-1.3-1.6
			c-0.5-0.4-1.2-0.8-2-1.1c-0.8-0.3-1.6-0.6-2.4-0.8v12C118.6,43.5,119.5,43.3,120.2,43z"/>
		<path class="st5" d="M131.9,25.9c0.1-1.3,0.2-2.7,0.5-3.9c0.3-1.3,0.6-2.5,1.1-3.6c0.5-1.2,1.1-2.2,2-3c0.8-0.9,1.9-1.6,3.1-2.1
			c1.3-0.5,2.8-0.8,4.5-0.8s3.3,0.3,4.5,0.8c1.3,0.5,2.3,1.2,3.1,2.1c0.8,0.9,1.5,1.9,2,3c0.5,1.2,0.8,2.4,1.1,3.6
			c0.3,1.3,0.4,2.6,0.5,3.9c0.1,1.3,0.1,2.6,0.1,3.9s0,2.5-0.1,3.9c-0.1,1.3-0.2,2.7-0.5,3.9c-0.3,1.3-0.6,2.5-1.1,3.6
			c-0.5,1.1-1.1,2.1-2,3c-0.8,0.9-1.9,1.5-3.1,2c-1.2,0.5-2.8,0.7-4.6,0.7c-1.8,0-3.3-0.2-4.5-0.7c-1.3-0.5-2.3-1.2-3.1-2
			c-0.8-0.9-1.5-1.9-2-3c-0.5-1.1-0.8-2.3-1.1-3.6c-0.3-1.3-0.4-2.6-0.5-3.9c-0.1-1.3-0.1-2.6-0.1-3.9S131.8,27.3,131.9,25.9z
			 M136.2,34.1c0.1,1.6,0.3,3.1,0.8,4.5c0.4,1.4,1.1,2.6,2.1,3.5c1,1,2.3,1.4,4,1.4c1.7,0,3.1-0.5,4-1.4s1.7-2.1,2.1-3.5
			c0.4-1.4,0.7-2.9,0.8-4.5c0.1-1.6,0.1-3,0.1-4.3c0-0.8,0-1.8,0-2.8c0-1-0.1-2-0.2-3c-0.1-1-0.4-2-0.6-3c-0.3-1-0.7-1.8-1.2-2.5
			c-0.5-0.7-1.2-1.3-2-1.8c-0.8-0.4-1.8-0.7-2.9-0.7c-1.2,0-2.1,0.2-2.9,0.7c-0.8,0.4-1.5,1-2,1.8c-0.5,0.7-0.9,1.6-1.2,2.5
			c-0.3,1-0.5,1.9-0.6,3c-0.1,1-0.2,2-0.2,3c0,1,0,1.9,0,2.8C136.1,31.1,136.1,32.5,136.2,34.1z"/>
		<path class="st5" d="M165.7,41.2v5.3h-5.3v-5.3H165.7z"/>
		<path class="st5" d="M171.9,25.9c0.1-1.3,0.2-2.7,0.5-3.9c0.3-1.3,0.6-2.5,1.1-3.6c0.5-1.2,1.1-2.2,2-3c0.8-0.9,1.9-1.6,3.1-2.1
			c1.3-0.5,2.8-0.8,4.5-0.8s3.3,0.3,4.5,0.8c1.3,0.5,2.3,1.2,3.1,2.1c0.8,0.9,1.5,1.9,2,3c0.5,1.2,0.8,2.4,1.1,3.6
			c0.3,1.3,0.4,2.6,0.5,3.9c0.1,1.3,0.1,2.6,0.1,3.9s0,2.5-0.1,3.9c-0.1,1.3-0.2,2.7-0.5,3.9c-0.3,1.3-0.6,2.5-1.1,3.6
			c-0.5,1.1-1.1,2.1-2,3c-0.8,0.9-1.9,1.5-3.1,2c-1.2,0.5-2.8,0.7-4.6,0.7c-1.8,0-3.3-0.2-4.5-0.7c-1.3-0.5-2.3-1.2-3.1-2
			c-0.8-0.9-1.5-1.9-2-3c-0.5-1.1-0.8-2.3-1.1-3.6c-0.3-1.3-0.4-2.6-0.5-3.9c-0.1-1.3-0.1-2.6-0.1-3.9S171.8,27.3,171.9,25.9z
			 M176.2,34.1c0.1,1.6,0.3,3.1,0.8,4.5c0.4,1.4,1.1,2.6,2.1,3.5c1,1,2.3,1.4,4,1.4c1.7,0,3.1-0.5,4-1.4s1.7-2.1,2.1-3.5
			c0.4-1.4,0.7-2.9,0.8-4.5c0.1-1.6,0.1-3,0.1-4.3c0-0.8,0-1.8,0-2.8c0-1-0.1-2-0.2-3c-0.1-1-0.4-2-0.6-3c-0.3-1-0.7-1.8-1.2-2.5
			c-0.5-0.7-1.2-1.3-2-1.8c-0.8-0.4-1.8-0.7-2.9-0.7c-1.2,0-2.1,0.2-2.9,0.7c-0.8,0.4-1.5,1-2,1.8c-0.5,0.7-0.9,1.6-1.2,2.5
			c-0.3,1-0.5,1.9-0.6,3c-0.1,1-0.2,2-0.2,3c0,1,0,1.9,0,2.8C176.1,31.1,176.2,32.5,176.2,34.1z"/>
		<path class="st5" d="M216,22.6c-1.5,2.3-2.8,4.8-4,7.5c-1.2,2.7-2.1,5.4-2.9,8.2c-0.7,2.8-1.2,5.6-1.3,8.2h-4.6
			c0.2-2.9,0.7-5.7,1.4-8.4c0.8-2.7,1.7-5.4,2.9-7.9c1.2-2.5,2.6-4.9,4.1-7.1c1.6-2.2,3.2-4.3,5-6.2h-17.9v-3.8h22v3.5
			C219.2,18.3,217.5,20.3,216,22.6z"/>
	</g>
	<g class="st4">
		<rect x="101.2" y="57.2" class="st0" width="128.8" height="22.4"/>
		<path class="st6" d="M114.5,59.6c-0.8-0.6-1.7-0.8-2.9-0.8c-0.5,0-1,0-1.4,0.1c-0.5,0.1-0.9,0.3-1.2,0.5c-0.4,0.2-0.6,0.5-0.9,0.9
			c-0.2,0.4-0.3,0.8-0.3,1.4c0,0.5,0.2,1,0.5,1.3c0.3,0.3,0.7,0.6,1.2,0.8c0.5,0.2,1.1,0.4,1.8,0.5s1.3,0.3,2,0.4
			c0.7,0.2,1.3,0.3,2,0.6s1.2,0.5,1.8,0.9c0.5,0.4,0.9,0.8,1.2,1.4c0.3,0.6,0.5,1.3,0.5,2.1c0,0.9-0.2,1.7-0.6,2.3
			c-0.4,0.6-0.9,1.2-1.6,1.6c-0.6,0.4-1.4,0.7-2.1,0.9c-0.8,0.2-1.6,0.3-2.4,0.3c-1,0-1.9-0.1-2.7-0.4c-0.9-0.2-1.6-0.6-2.3-1.1
			c-0.6-0.5-1.2-1.1-1.5-1.9c-0.4-0.8-0.6-1.7-0.6-2.7h2.2c0,0.7,0.1,1.3,0.4,1.9s0.6,0.9,1.1,1.3s1,0.6,1.6,0.7
			c0.6,0.2,1.2,0.2,1.9,0.2c0.5,0,1,0,1.5-0.1c0.5-0.1,1-0.3,1.4-0.5s0.8-0.5,1-0.9c0.3-0.4,0.4-0.9,0.4-1.5c0-0.6-0.2-1.1-0.5-1.4
			c-0.3-0.4-0.7-0.7-1.2-0.9c-0.5-0.2-1.1-0.4-1.8-0.6c-0.7-0.1-1.3-0.3-2-0.4c-0.7-0.2-1.3-0.3-2-0.5c-0.7-0.2-1.2-0.5-1.8-0.8
			s-0.9-0.8-1.2-1.3c-0.3-0.5-0.5-1.2-0.5-2c0-0.9,0.2-1.6,0.5-2.2c0.4-0.6,0.8-1.2,1.4-1.6s1.2-0.7,2-0.9c0.7-0.2,1.5-0.3,2.3-0.3
			c0.9,0,1.7,0.1,2.4,0.3s1.4,0.5,2,1c0.6,0.4,1,1,1.3,1.7c0.3,0.7,0.5,1.5,0.5,2.4h-2.2C115.7,61,115.3,60.1,114.5,59.6z"/>
		<path class="st6" d="M128.7,57.2l6.7,17.1h-2.5l-1.9-5.2h-7.2l-1.9,5.2h-2.3l6.7-17.1H128.7z M130.2,67.3l-2.9-8h0l-2.9,8H130.2z"
			/>
		<path class="st6" d="M139.3,57.2v15.2h9.1v1.9H137V57.2H139.3z"/>
		<path class="st6" d="M162.2,57.2v1.9h-9.6v5.4h8.9v1.9h-8.9v5.9h9.6v1.9h-11.9V57.2H162.2z"/>
		<path class="st6" d="M173.6,59.6c-0.8-0.6-1.7-0.8-2.9-0.8c-0.5,0-1,0-1.4,0.1c-0.5,0.1-0.9,0.3-1.2,0.5c-0.4,0.2-0.6,0.5-0.9,0.9
			c-0.2,0.4-0.3,0.8-0.3,1.4c0,0.5,0.2,1,0.5,1.3c0.3,0.3,0.7,0.6,1.2,0.8c0.5,0.2,1.1,0.4,1.8,0.5s1.3,0.3,2,0.4
			c0.7,0.2,1.3,0.3,2,0.6s1.2,0.5,1.8,0.9c0.5,0.4,0.9,0.8,1.2,1.4c0.3,0.6,0.5,1.3,0.5,2.1c0,0.9-0.2,1.7-0.6,2.3
			c-0.4,0.6-0.9,1.2-1.6,1.6c-0.6,0.4-1.4,0.7-2.1,0.9c-0.8,0.2-1.6,0.3-2.4,0.3c-1,0-1.9-0.1-2.7-0.4c-0.9-0.2-1.6-0.6-2.3-1.1
			c-0.6-0.5-1.2-1.1-1.5-1.9c-0.4-0.8-0.6-1.7-0.6-2.7h2.2c0,0.7,0.1,1.3,0.4,1.9s0.6,0.9,1.1,1.3s1,0.6,1.6,0.7
			c0.6,0.2,1.2,0.2,1.9,0.2c0.5,0,1,0,1.5-0.1c0.5-0.1,1-0.3,1.4-0.5s0.8-0.5,1-0.9c0.3-0.4,0.4-0.9,0.4-1.5c0-0.6-0.2-1.1-0.5-1.4
			c-0.3-0.4-0.7-0.7-1.2-0.9c-0.5-0.2-1.1-0.4-1.8-0.6c-0.7-0.1-1.3-0.3-2-0.4c-0.7-0.2-1.3-0.3-2-0.5c-0.7-0.2-1.2-0.5-1.8-0.8
			s-0.9-0.8-1.2-1.3c-0.3-0.5-0.5-1.2-0.5-2c0-0.9,0.2-1.6,0.5-2.2c0.4-0.6,0.8-1.2,1.4-1.6s1.2-0.7,2-0.9c0.7-0.2,1.5-0.3,2.3-0.3
			c0.9,0,1.7,0.1,2.4,0.3s1.4,0.5,2,1c0.6,0.4,1,1,1.3,1.7c0.3,0.7,0.5,1.5,0.5,2.4H175C174.8,61,174.4,60.1,173.6,59.6z"/>
		<path class="st6" d="M185.4,59.1v-1.9h13.7v1.9h-5.7v15.2h-2.3V59.1H185.4z"/>
		<path class="st6" d="M206,57.2l6.7,17.1h-2.5l-1.9-5.2h-7.2l-1.9,5.2h-2.3l6.7-17.1H206z M207.6,67.3l-2.9-8h0l-2.9,8H207.6z"/>
		<path class="st6" d="M212.8,57.2h2.7l4.3,6.7l4.5-6.7h2.5l-5.7,8.3l6,8.8h-2.8l-4.6-7.1l-4.8,7.1h-2.5l6-8.8L212.8,57.2z"/>
	</g>
</g>
<g id="state-text" class="st3">
	<g class="st4">
		<rect x="563" y="34.1" class="st0" width="123.5" height="35"/>
		<path class="st5" d="M571.9,63c1.3,1.2,2.9,2,4.8,2.4V52.6c-1.7-0.4-3.2-0.9-4.4-1.4c-1.2-0.5-2.3-1.1-3.1-1.8
			c-0.8-0.7-1.4-1.5-1.8-2.5c-0.4-1-0.6-2.2-0.6-3.6c0-1.4,0.3-2.8,0.8-4c0.5-1.2,1.2-2.2,2.1-3.1c0.9-0.9,1.9-1.6,3.1-2.1
			c1.2-0.5,2.5-0.8,3.9-0.9v-3.2h2.6v3.2c2.6,0.3,4.7,1.3,6.2,2.9c1.5,1.6,2.6,3.8,3.3,6.6h-4.1c-0.6-3.2-2.4-5-5.4-5.6V49l2.9,0.8
			c0.6,0.2,1.4,0.4,2.3,0.8c0.9,0.4,1.7,1,2.5,1.7c0.8,0.7,1.5,1.6,2,2.6c0.6,1.1,0.8,2.3,0.8,3.8c0,1.6-0.3,3-0.8,4.2
			c-0.5,1.2-1.3,2.3-2.2,3.1c-0.9,0.9-2,1.6-3.3,2.1c-1.3,0.5-2.7,0.8-4.2,1V73h-2.6v-3.9c-3.2-0.3-5.7-1.4-7.6-3.3
			c-1.9-1.9-3-4.5-3.2-7.9h4.1C570,60,570.6,61.7,571.9,63z M572.8,38.7c-1.1,0.9-1.6,2.3-1.6,4.2c0,0.8,0.1,1.5,0.4,2.1
			c0.3,0.6,0.7,1.1,1.2,1.5c0.5,0.4,1.1,0.7,1.8,1c0.7,0.3,1.4,0.5,2.2,0.8V37.1C575.1,37.2,573.8,37.8,572.8,38.7z M581.8,64.8
			c0.8-0.3,1.4-0.6,2-1.1c0.6-0.5,1-1.1,1.3-1.9c0.3-0.8,0.5-1.6,0.5-2.7c0-0.9-0.2-1.7-0.5-2.3c-0.3-0.6-0.8-1.2-1.3-1.6
			c-0.5-0.4-1.2-0.8-2-1.1c-0.8-0.3-1.6-0.6-2.4-0.8v12C580.2,65.2,581,65.1,581.8,64.8z"/>
		<path class="st5" d="M593.4,47.7c0.1-1.3,0.2-2.7,0.5-3.9c0.3-1.3,0.6-2.5,1.1-3.6c0.5-1.2,1.1-2.2,2-3c0.8-0.9,1.9-1.6,3.1-2.1
			c1.3-0.5,2.8-0.8,4.5-0.8s3.3,0.3,4.5,0.8c1.3,0.5,2.3,1.2,3.1,2.1c0.8,0.9,1.5,1.9,2,3c0.5,1.2,0.8,2.4,1.1,3.6
			c0.3,1.3,0.4,2.6,0.5,3.9c0.1,1.3,0.1,2.6,0.1,3.9s0,2.5-0.1,3.9c-0.1,1.3-0.2,2.7-0.5,3.9c-0.3,1.3-0.6,2.5-1.1,3.6
			c-0.5,1.1-1.1,2.1-2,3c-0.8,0.9-1.9,1.5-3.1,2c-1.2,0.5-2.8,0.7-4.6,0.7c-1.8,0-3.3-0.2-4.5-0.7c-1.3-0.5-2.3-1.2-3.1-2
			c-0.8-0.9-1.5-1.9-2-3c-0.5-1.1-0.8-2.3-1.1-3.6c-0.3-1.3-0.4-2.6-0.5-3.9c-0.1-1.3-0.1-2.6-0.1-3.9S593.4,49.1,593.4,47.7z
			 M597.8,55.9c0.1,1.6,0.3,3.1,0.8,4.5c0.4,1.4,1.1,2.6,2.1,3.5c1,1,2.3,1.4,4,1.4c1.7,0,3.1-0.5,4-1.4s1.7-2.1,2.1-3.5
			c0.4-1.4,0.7-2.9,0.8-4.5c0.1-1.6,0.1-3,0.1-4.3c0-0.8,0-1.8,0-2.8c0-1-0.1-2-0.2-3c-0.1-1-0.4-2-0.6-3c-0.3-1-0.7-1.8-1.2-2.5
			c-0.5-0.7-1.2-1.3-2-1.8c-0.8-0.4-1.8-0.7-2.9-0.7c-1.2,0-2.1,0.2-2.9,0.7c-0.8,0.4-1.5,1-2,1.8c-0.5,0.7-0.9,1.6-1.2,2.5
			c-0.3,1-0.5,1.9-0.6,3c-0.1,1-0.2,2-0.2,3c0,1,0,1.9,0,2.8C597.7,52.9,597.7,54.3,597.8,55.9z"/>
		<path class="st5" d="M627.3,63v5.3H622V63H627.3z"/>
		<path class="st5" d="M633.5,47.7c0.1-1.3,0.2-2.7,0.5-3.9c0.3-1.3,0.6-2.5,1.1-3.6c0.5-1.2,1.1-2.2,2-3c0.8-0.9,1.9-1.6,3.1-2.1
			c1.3-0.5,2.8-0.8,4.5-0.8s3.3,0.3,4.5,0.8c1.3,0.5,2.3,1.2,3.1,2.1c0.8,0.9,1.5,1.9,2,3c0.5,1.2,0.8,2.4,1.1,3.6
			c0.3,1.3,0.4,2.6,0.5,3.9c0.1,1.3,0.1,2.6,0.1,3.9s0,2.5-0.1,3.9c-0.1,1.3-0.2,2.7-0.5,3.9c-0.3,1.3-0.6,2.5-1.1,3.6
			c-0.5,1.1-1.1,2.1-2,3c-0.8,0.9-1.9,1.5-3.1,2c-1.2,0.5-2.8,0.7-4.6,0.7c-1.8,0-3.3-0.2-4.5-0.7c-1.3-0.5-2.3-1.2-3.1-2
			c-0.8-0.9-1.5-1.9-2-3c-0.5-1.1-0.8-2.3-1.1-3.6c-0.3-1.3-0.4-2.6-0.5-3.9c-0.1-1.3-0.1-2.6-0.1-3.9S633.4,49.1,633.5,47.7z
			 M637.8,55.9c0.1,1.6,0.3,3.1,0.8,4.5c0.4,1.4,1.1,2.6,2.1,3.5c1,1,2.3,1.4,4,1.4c1.7,0,3.1-0.5,4-1.4s1.7-2.1,2.1-3.5
			c0.4-1.4,0.7-2.9,0.8-4.5c0.1-1.6,0.1-3,0.1-4.3c0-0.8,0-1.8,0-2.8c0-1-0.1-2-0.2-3c-0.1-1-0.4-2-0.6-3c-0.3-1-0.7-1.8-1.2-2.5
			c-0.5-0.7-1.2-1.3-2-1.8c-0.8-0.4-1.8-0.7-2.9-0.7c-1.2,0-2.1,0.2-2.9,0.7c-0.8,0.4-1.5,1-2,1.8c-0.5,0.7-0.9,1.6-1.2,2.5
			c-0.3,1-0.5,1.9-0.6,3c-0.1,1-0.2,2-0.2,3c0,1,0,1.9,0,2.8C637.7,52.9,637.7,54.3,637.8,55.9z"/>
		<path class="st5" d="M676.1,39.3c-1-0.9-2.3-1.4-3.9-1.4c-1.7,0-3.1,0.4-4.2,1.3c-1.1,0.8-1.9,1.9-2.5,3.2c-0.6,1.3-1,2.7-1.2,4.2
			c-0.2,1.5-0.4,2.9-0.4,4.2l0.1,0.1c1-1.6,2.2-2.7,3.6-3.4c1.4-0.7,3.1-1.1,4.9-1.1c1.6,0,3.1,0.3,4.4,0.8c1.3,0.6,2.4,1.3,3.3,2.3
			c0.9,1,1.6,2.2,2,3.5c0.5,1.3,0.7,2.8,0.7,4.4c0,1.2-0.2,2.5-0.6,3.9c-0.4,1.3-1,2.6-1.9,3.7c-0.9,1.1-2,2-3.5,2.7
			c-1.5,0.7-3.3,1.1-5.4,1.1c-2.5,0-4.6-0.5-6.1-1.5c-1.5-1-2.7-2.3-3.6-3.9c-0.8-1.6-1.4-3.4-1.7-5.3c-0.3-1.9-0.4-3.8-0.4-5.6
			c0-2.3,0.2-4.6,0.6-6.8c0.4-2.2,1.1-4.1,2-5.8c1-1.7,2.2-3.1,3.8-4.1c1.6-1,3.6-1.5,6-1.5c2.8,0,5.1,0.7,6.7,2.2
			c1.7,1.5,2.6,3.6,2.9,6.5h-4.1C677.7,41.5,677.1,40.2,676.1,39.3z M668.7,50.6c-0.9,0.4-1.6,0.9-2.2,1.6c-0.6,0.7-1.1,1.5-1.4,2.4
			c-0.3,0.9-0.5,1.9-0.5,3s0.2,2,0.5,3c0.3,0.9,0.8,1.7,1.4,2.4s1.3,1.2,2.2,1.6c0.9,0.4,1.9,0.6,3,0.6s2.1-0.2,3-0.6
			c0.8-0.4,1.6-1,2.1-1.7c0.6-0.7,1-1.5,1.3-2.4c0.3-0.9,0.5-1.9,0.5-2.9c0-1.1-0.1-2.1-0.4-3c-0.3-0.9-0.7-1.8-1.3-2.4
			c-0.6-0.7-1.3-1.2-2.2-1.7c-0.9-0.4-1.9-0.6-3-0.6C670.6,50,669.6,50.2,668.7,50.6z"/>
	</g>
	<g class="st4">
		<rect x="515.1" y="81" class="st0" width="219.2" height="22.4"/>
		<path class="st6" d="M528.2,83.4c-0.8-0.6-1.7-0.8-2.9-0.8c-0.5,0-1,0-1.4,0.1c-0.5,0.1-0.9,0.3-1.2,0.5c-0.4,0.2-0.6,0.5-0.9,0.9
			c-0.2,0.4-0.3,0.8-0.3,1.4c0,0.5,0.2,1,0.5,1.3c0.3,0.3,0.7,0.6,1.2,0.8c0.5,0.2,1.1,0.4,1.8,0.5s1.3,0.3,2,0.4
			c0.7,0.2,1.3,0.3,2,0.6s1.2,0.5,1.8,0.9c0.5,0.4,0.9,0.8,1.2,1.4c0.3,0.6,0.5,1.3,0.5,2.1c0,0.9-0.2,1.7-0.6,2.3
			c-0.4,0.6-0.9,1.2-1.6,1.6c-0.6,0.4-1.4,0.7-2.1,0.9c-0.8,0.2-1.6,0.3-2.4,0.3c-1,0-1.9-0.1-2.7-0.4c-0.9-0.2-1.6-0.6-2.3-1.1
			c-0.6-0.5-1.2-1.1-1.5-1.9c-0.4-0.8-0.6-1.7-0.6-2.7h2.2c0,0.7,0.1,1.3,0.4,1.9s0.6,0.9,1.1,1.3s1,0.6,1.6,0.7
			c0.6,0.2,1.2,0.2,1.9,0.2c0.5,0,1,0,1.5-0.1c0.5-0.1,1-0.3,1.4-0.5s0.8-0.5,1-0.9c0.3-0.4,0.4-0.9,0.4-1.5c0-0.6-0.2-1.1-0.5-1.4
			c-0.3-0.4-0.7-0.7-1.2-0.9c-0.5-0.2-1.1-0.4-1.8-0.6c-0.7-0.1-1.3-0.3-2-0.4c-0.7-0.2-1.3-0.3-2-0.5c-0.7-0.2-1.2-0.5-1.8-0.8
			s-0.9-0.8-1.2-1.3c-0.3-0.5-0.5-1.2-0.5-2c0-0.9,0.2-1.6,0.5-2.2c0.4-0.6,0.8-1.2,1.4-1.6s1.2-0.7,2-0.9c0.7-0.2,1.5-0.3,2.3-0.3
			c0.9,0,1.7,0.1,2.4,0.3s1.4,0.5,2,1c0.6,0.4,1,1,1.3,1.7c0.3,0.7,0.5,1.5,0.5,2.4h-2.2C529.4,84.8,529,83.9,528.2,83.4z"/>
		<path class="st6" d="M533.4,82.9V81h13.7v1.9h-5.7v15.2h-2.3V82.9H533.4z"/>
		<path class="st6" d="M553.9,81l6.7,17.1h-2.5l-1.9-5.2H549l-1.9,5.2h-2.3l6.7-17.1H553.9z M555.5,91.1l-2.9-8h0l-2.9,8H555.5z"/>
		<path class="st6" d="M558.3,82.9V81H572v1.9h-5.7v15.2H564V82.9H558.3z"/>
		<path class="st6" d="M585.7,81v1.9h-9.6v5.4h8.9v1.9h-8.9v5.9h9.6v1.9h-11.9V81H585.7z"/>
		<path class="st6" d="M597.5,81v15.2h9.1v1.9h-11.4V81H597.5z"/>
		<path class="st6" d="M610.9,81v17.1h-2.3V81H610.9z"/>
		<path class="st6" d="M626.1,97.5c-1.2,0.7-2.5,1-4.1,1c-1.4,0-2.6-0.2-3.6-0.7c-1-0.5-1.9-1.1-2.6-2c-0.7-0.8-1.2-1.8-1.5-2.9
			c-0.3-1.1-0.5-2.2-0.5-3.4s0.2-2.3,0.5-3.4s0.9-2,1.5-2.9c0.7-0.8,1.5-1.5,2.6-2c1-0.5,2.2-0.7,3.6-0.7c1.4,0,2.6,0.2,3.6,0.7
			c1,0.5,1.9,1.2,2.6,2c0.7,0.8,1.2,1.8,1.5,2.9c0.3,1.1,0.5,2.2,0.5,3.4c0,1.3-0.2,2.6-0.6,3.7c-0.4,1.2-1.1,2.2-1.9,3.1l2.3,1.8
			l-1.2,1.4L626.1,97.5z M626,95.1c0.7-0.7,1.2-1.5,1.5-2.5c0.3-1,0.5-2,0.5-3c0-0.9-0.1-1.7-0.3-2.6c-0.2-0.8-0.6-1.6-1.1-2.3
			c-0.5-0.7-1.1-1.2-1.8-1.6c-0.8-0.4-1.6-0.6-2.7-0.6s-1.9,0.2-2.7,0.6c-0.8,0.4-1.4,0.9-1.8,1.6s-0.8,1.4-1.1,2.3
			c-0.2,0.8-0.3,1.7-0.3,2.6c0,0.9,0.1,1.7,0.3,2.6c0.2,0.8,0.6,1.6,1.1,2.3c0.5,0.7,1.1,1.2,1.8,1.6s1.6,0.6,2.7,0.6
			c0.8,0,1.6-0.2,2.4-0.5l-1.9-1.5l1.2-1.4L626,95.1z"/>
		<path class="st6" d="M644.9,96.9c-1.2,1.1-2.8,1.6-5,1.6c-2.2,0-3.9-0.5-5.2-1.6c-1.2-1-1.9-2.7-1.9-5V81h2.3V92
			c0,1.5,0.4,2.7,1.2,3.5c0.8,0.8,2,1.2,3.5,1.2c1.5,0,2.6-0.4,3.3-1.2s1.1-2,1.1-3.5V81h2.3V92C646.7,94.2,646.1,95.8,644.9,96.9z"
			/>
		<path class="st6" d="M649.9,86.2c0.3-1.1,0.9-2,1.5-2.9c0.7-0.8,1.5-1.5,2.6-2c1-0.5,2.2-0.7,3.6-0.7c1.4,0,2.6,0.2,3.6,0.7
			c1,0.5,1.9,1.2,2.6,2c0.7,0.8,1.2,1.8,1.5,2.9c0.3,1.1,0.5,2.2,0.5,3.4s-0.2,2.3-0.5,3.4c-0.3,1.1-0.9,2-1.5,2.9
			c-0.7,0.8-1.5,1.5-2.6,2c-1,0.5-2.2,0.7-3.6,0.7c-1.4,0-2.6-0.2-3.6-0.7c-1-0.5-1.9-1.1-2.6-2c-0.7-0.8-1.2-1.8-1.5-2.9
			c-0.3-1.1-0.5-2.2-0.5-3.4S649.6,87.3,649.9,86.2z M652,92.1c0.2,0.8,0.6,1.6,1.1,2.3c0.5,0.7,1.1,1.2,1.8,1.6s1.6,0.6,2.7,0.6
			s1.9-0.2,2.7-0.6s1.4-0.9,1.8-1.6c0.5-0.7,0.8-1.4,1.1-2.3c0.2-0.8,0.3-1.7,0.3-2.6c0-0.9-0.1-1.7-0.3-2.6
			c-0.2-0.8-0.6-1.6-1.1-2.3c-0.5-0.7-1.1-1.2-1.8-1.6c-0.8-0.4-1.6-0.6-2.7-0.6s-1.9,0.2-2.7,0.6c-0.8,0.4-1.4,0.9-1.8,1.6
			s-0.8,1.4-1.1,2.3c-0.2,0.8-0.3,1.7-0.3,2.6C651.7,90.4,651.8,91.3,652,92.1z"/>
		<path class="st6" d="M676.6,81c1.6,0,2.9,0.4,3.8,1.2c0.9,0.8,1.4,1.9,1.4,3.3c0,1-0.2,2-0.7,2.7c-0.5,0.8-1.2,1.3-2.3,1.6v0
			c0.5,0.1,0.9,0.3,1.2,0.5c0.3,0.2,0.6,0.5,0.7,0.8c0.2,0.3,0.3,0.7,0.4,1c0.1,0.4,0.2,0.8,0.2,1.2c0,0.4,0.1,0.8,0.1,1.3
			c0,0.4,0.1,0.9,0.1,1.3c0.1,0.4,0.2,0.8,0.3,1.2c0.1,0.4,0.3,0.7,0.5,1h-2.5c-0.2-0.2-0.3-0.4-0.3-0.7c-0.1-0.3-0.1-0.6-0.1-1
			c0-0.4,0-0.8,0-1.2c0-0.4-0.1-0.9-0.1-1.3c-0.1-0.4-0.1-0.8-0.2-1.2c-0.1-0.4-0.2-0.7-0.5-1c-0.2-0.3-0.5-0.5-0.8-0.7
			c-0.3-0.2-0.8-0.3-1.3-0.3h-5.6v7.3h-2.3V81H676.6z M677.1,88.8c0.5-0.1,0.9-0.2,1.3-0.5c0.4-0.2,0.6-0.5,0.9-0.9
			c0.2-0.4,0.3-0.9,0.3-1.5c0-0.9-0.2-1.6-0.7-2.1c-0.5-0.5-1.3-0.8-2.3-0.8h-5.7v6h4.8C676.1,88.9,676.6,88.9,677.1,88.8z"/>
		<path class="st6" d="M689.9,82.9V81h13.7v1.9h-5.7v15.2h-2.3V82.9H689.9z"/>
		<path class="st6" d="M710.4,81l6.7,17.1h-2.5l-1.9-5.2h-7.2l-1.9,5.2h-2.3l6.7-17.1H710.4z M712,91.1l-2.9-8h0l-2.9,8H712z"/>
		<path class="st6" d="M717.2,81h2.7l4.3,6.7l4.5-6.7h2.5l-5.7,8.3l6,8.8h-2.8l-4.6-7.1l-4.8,7.1h-2.5l6-8.8L717.2,81z"/>
	</g>
</g>
<g id="federal-text" class="st3">
	<g class="st4">
		<rect x="101.4" y="63.2" class="st0" width="123.5" height="35"/>
		<path class="st5" d="M110.3,92.1c1.3,1.2,2.9,2,4.8,2.4V81.7c-1.7-0.4-3.2-0.9-4.4-1.4c-1.2-0.5-2.3-1.1-3.1-1.8
			c-0.8-0.7-1.4-1.5-1.8-2.5c-0.4-1-0.6-2.2-0.6-3.6c0-1.4,0.3-2.8,0.8-4c0.5-1.2,1.2-2.2,2.1-3.1c0.9-0.9,1.9-1.6,3.1-2.1
			c1.2-0.5,2.5-0.8,3.9-0.9v-3.2h2.6v3.2c2.6,0.3,4.7,1.3,6.2,2.9c1.5,1.6,2.6,3.8,3.3,6.6h-4.1c-0.6-3.2-2.4-5-5.4-5.6v11.8
			l2.9,0.8c0.6,0.2,1.4,0.4,2.3,0.8c0.9,0.4,1.7,1,2.5,1.7c0.8,0.7,1.5,1.6,2,2.6c0.6,1.1,0.8,2.3,0.8,3.8c0,1.6-0.3,3-0.8,4.2
			c-0.5,1.2-1.3,2.3-2.2,3.1c-0.9,0.9-2,1.6-3.3,2.1c-1.3,0.5-2.7,0.8-4.2,1v3.9h-2.6v-3.9c-3.2-0.3-5.7-1.4-7.6-3.3
			c-1.9-1.9-3-4.5-3.2-7.9h4.1C108.4,89.1,109.1,90.8,110.3,92.1z M111.2,67.9c-1.1,0.9-1.6,2.3-1.6,4.2c0,0.8,0.1,1.5,0.4,2.1
			c0.3,0.6,0.7,1.1,1.2,1.5c0.5,0.4,1.1,0.7,1.8,1c0.7,0.3,1.4,0.5,2.2,0.8V66.2C113.6,66.4,112.3,66.9,111.2,67.9z M120.2,94
			c0.8-0.3,1.4-0.6,2-1.1c0.6-0.5,1-1.1,1.3-1.9c0.3-0.8,0.5-1.6,0.5-2.7c0-0.9-0.2-1.7-0.5-2.3c-0.3-0.6-0.8-1.2-1.3-1.6
			c-0.5-0.4-1.2-0.8-2-1.1c-0.8-0.3-1.6-0.6-2.4-0.8v12C118.6,94.4,119.5,94.2,120.2,94z"/>
		<path class="st5" d="M131.9,76.9c0.1-1.3,0.2-2.7,0.5-3.9c0.3-1.3,0.6-2.5,1.1-3.6c0.5-1.2,1.1-2.2,2-3c0.8-0.9,1.9-1.6,3.1-2.1
			c1.3-0.5,2.8-0.8,4.5-0.8s3.3,0.3,4.5,0.8c1.3,0.5,2.3,1.2,3.1,2.1c0.8,0.9,1.5,1.9,2,3c0.5,1.2,0.8,2.4,1.1,3.6
			c0.3,1.3,0.4,2.6,0.5,3.9c0.1,1.3,0.1,2.6,0.1,3.9s0,2.5-0.1,3.9c-0.1,1.3-0.2,2.7-0.5,3.9c-0.3,1.3-0.6,2.5-1.1,3.6
			c-0.5,1.1-1.1,2.1-2,3c-0.8,0.9-1.9,1.5-3.1,2c-1.2,0.5-2.8,0.7-4.6,0.7c-1.8,0-3.3-0.2-4.5-0.7c-1.3-0.5-2.3-1.2-3.1-2
			c-0.8-0.9-1.5-1.9-2-3c-0.5-1.1-0.8-2.3-1.1-3.6c-0.3-1.3-0.4-2.6-0.5-3.9c-0.1-1.3-0.1-2.6-0.1-3.9S131.8,78.2,131.9,76.9z
			 M136.2,85c0.1,1.6,0.3,3.1,0.8,4.5c0.4,1.4,1.1,2.6,2.1,3.5c1,1,2.3,1.4,4,1.4c1.7,0,3.1-0.5,4-1.4s1.7-2.1,2.1-3.5
			c0.4-1.4,0.7-2.9,0.8-4.5c0.1-1.6,0.1-3,0.1-4.3c0-0.8,0-1.8,0-2.8c0-1-0.1-2-0.2-3c-0.1-1-0.4-2-0.6-3c-0.3-1-0.7-1.8-1.2-2.5
			c-0.5-0.7-1.2-1.3-2-1.8c-0.8-0.4-1.8-0.7-2.9-0.7c-1.2,0-2.1,0.2-2.9,0.7c-0.8,0.4-1.5,1-2,1.8c-0.5,0.7-0.9,1.6-1.2,2.5
			c-0.3,1-0.5,1.9-0.6,3c-0.1,1-0.2,2-0.2,3c0,1,0,1.9,0,2.8C136.1,82,136.1,83.4,136.2,85z"/>
		<path class="st5" d="M165.7,92.1v5.3h-5.3v-5.3H165.7z"/>
		<path class="st5" d="M182.8,97.5V73.1H174v-3.3c1.2,0,2.3-0.1,3.4-0.3c1.1-0.2,2.1-0.5,3-1c0.9-0.5,1.6-1.1,2.2-2
			c0.6-0.8,1-1.9,1.2-3.2h3.1v34H182.8z"/>
		<path class="st5" d="M209.5,97.5V73.1h-8.8v-3.3c1.2,0,2.3-0.1,3.4-0.3c1.1-0.2,2.1-0.5,3-1c0.9-0.5,1.6-1.1,2.2-2
			c0.6-0.8,1-1.9,1.2-3.2h3.1v34H209.5z"/>
	</g>
	<g class="st4">
		<rect x="23.7" y="110.1" class="st0" width="278.8" height="22.4"/>
		<path class="st6" d="M51.1,110.1v1.9h-9v5.4H50v1.9h-7.9v7.8h-2.3v-17.1H51.1z"/>
		<path class="st6" d="M65.4,110.1v1.9h-9.6v5.4h8.9v1.9h-8.9v5.9h9.6v1.9H53.6v-17.1H65.4z"/>
		<path class="st6" d="M74.2,110.1c2.6,0,4.7,0.7,6.1,2c1.4,1.3,2.1,3.4,2.1,6.1c0,1.4-0.2,2.7-0.5,3.8c-0.3,1.1-0.8,2-1.5,2.8
			c-0.7,0.8-1.5,1.3-2.6,1.7c-1,0.4-2.3,0.6-3.7,0.6h-5.9v-17.1H74.2z M74.4,125.4c0.3,0,0.6,0,1-0.1c0.4,0,0.8-0.1,1.2-0.3
			c0.4-0.2,0.9-0.4,1.3-0.7c0.4-0.3,0.8-0.7,1.1-1.2c0.3-0.5,0.6-1.1,0.8-1.9c0.2-0.7,0.3-1.6,0.3-2.7c0-1-0.1-1.9-0.3-2.7
			c-0.2-0.8-0.5-1.5-1-2.1c-0.5-0.6-1-1-1.8-1.3c-0.7-0.3-1.6-0.4-2.7-0.4h-3.8v13.3H74.4z"/>
		<path class="st6" d="M97,110.1v1.9h-9.6v5.4h8.9v1.9h-8.9v5.9h9.6v1.9H85.2v-17.1H97z"/>
		<path class="st6" d="M107.9,110.1c1.6,0,2.9,0.4,3.8,1.2c0.9,0.8,1.4,1.9,1.4,3.3c0,1-0.2,2-0.7,2.7c-0.5,0.8-1.2,1.3-2.3,1.6v0
			c0.5,0.1,0.9,0.3,1.2,0.5c0.3,0.2,0.6,0.5,0.7,0.8c0.2,0.3,0.3,0.7,0.4,1c0.1,0.4,0.2,0.8,0.2,1.2c0,0.4,0.1,0.8,0.1,1.3
			c0,0.4,0.1,0.9,0.1,1.3c0.1,0.4,0.2,0.8,0.3,1.2c0.1,0.4,0.3,0.7,0.5,1h-2.5c-0.2-0.2-0.3-0.4-0.3-0.7c-0.1-0.3-0.1-0.6-0.1-1
			c0-0.4,0-0.8,0-1.2c0-0.4-0.1-0.9-0.1-1.3c-0.1-0.4-0.1-0.8-0.2-1.2c-0.1-0.4-0.2-0.7-0.5-1c-0.2-0.3-0.5-0.5-0.8-0.7
			c-0.3-0.2-0.8-0.3-1.3-0.3h-5.6v7.3h-2.3v-17.1H107.9z M108.4,117.9c0.5-0.1,0.9-0.2,1.3-0.5c0.4-0.2,0.6-0.5,0.9-0.9
			c0.2-0.4,0.3-0.9,0.3-1.5c0-0.9-0.2-1.6-0.7-2.1c-0.5-0.5-1.3-0.8-2.3-0.8h-5.7v6h4.8C107.4,118,107.9,118,108.4,117.9z"/>
		<path class="st6" d="M123.5,110.1l6.7,17.1h-2.5l-1.9-5.2h-7.2l-1.9,5.2h-2.3l6.7-17.1H123.5z M125,120.2l-2.9-8h0l-2.9,8H125z"/>
		<path class="st6" d="M134.1,110.1v15.2h9.1v1.9h-11.4v-17.1H134.1z"/>
		<path class="st6" d="M154.1,110.1v15.2h9.1v1.9h-11.4v-17.1H154.1z"/>
		<path class="st6" d="M167.6,110.1v17.1h-2.3v-17.1H167.6z"/>
		<path class="st6" d="M182.8,126.7c-1.2,0.7-2.5,1-4.1,1c-1.4,0-2.6-0.2-3.6-0.7c-1-0.5-1.9-1.1-2.6-2c-0.7-0.8-1.2-1.8-1.5-2.9
			c-0.3-1.1-0.5-2.2-0.5-3.4s0.2-2.3,0.5-3.4s0.9-2,1.5-2.9c0.7-0.8,1.5-1.5,2.6-2c1-0.5,2.2-0.7,3.6-0.7c1.4,0,2.6,0.2,3.6,0.7
			c1,0.5,1.9,1.2,2.6,2c0.7,0.8,1.2,1.8,1.5,2.9c0.3,1.1,0.5,2.2,0.5,3.4c0,1.3-0.2,2.6-0.6,3.7c-0.4,1.2-1.1,2.2-1.9,3.1l2.3,1.8
			l-1.2,1.4L182.8,126.7z M182.6,124.2c0.7-0.7,1.2-1.5,1.5-2.5c0.3-1,0.5-2,0.5-3c0-0.9-0.1-1.7-0.3-2.6c-0.2-0.8-0.6-1.6-1.1-2.3
			c-0.5-0.7-1.1-1.2-1.8-1.6c-0.8-0.4-1.6-0.6-2.7-0.6s-1.9,0.2-2.7,0.6c-0.8,0.4-1.4,0.9-1.8,1.6s-0.8,1.4-1.1,2.3
			c-0.2,0.8-0.3,1.7-0.3,2.6c0,0.9,0.1,1.7,0.3,2.6c0.2,0.8,0.6,1.6,1.1,2.3c0.5,0.7,1.1,1.2,1.8,1.6s1.6,0.6,2.7,0.6
			c0.8,0,1.6-0.2,2.4-0.5l-1.9-1.5l1.2-1.4L182.6,124.2z"/>
		<path class="st6" d="M201.6,126c-1.2,1.1-2.8,1.6-5,1.6c-2.2,0-3.9-0.5-5.2-1.6c-1.2-1-1.9-2.7-1.9-5v-10.9h2.3v10.9
			c0,1.5,0.4,2.7,1.2,3.5c0.8,0.8,2,1.2,3.5,1.2c1.5,0,2.6-0.4,3.3-1.2s1.1-2,1.1-3.5v-10.9h2.3v10.9
			C203.3,123.3,202.7,124.9,201.6,126z"/>
		<path class="st6" d="M206.5,115.3c0.3-1.1,0.9-2,1.5-2.9c0.7-0.8,1.5-1.5,2.6-2c1-0.5,2.2-0.7,3.6-0.7c1.4,0,2.6,0.2,3.6,0.7
			c1,0.5,1.9,1.2,2.6,2c0.7,0.8,1.2,1.8,1.5,2.9c0.3,1.1,0.5,2.2,0.5,3.4s-0.2,2.3-0.5,3.4c-0.3,1.1-0.9,2-1.5,2.9
			c-0.7,0.8-1.5,1.5-2.6,2c-1,0.5-2.2,0.7-3.6,0.7c-1.4,0-2.6-0.2-3.6-0.7c-1-0.5-1.9-1.1-2.6-2c-0.7-0.8-1.2-1.8-1.5-2.9
			c-0.3-1.1-0.5-2.2-0.5-3.4S206.2,116.4,206.5,115.3z M208.6,121.3c0.2,0.8,0.6,1.6,1.1,2.3c0.5,0.7,1.1,1.2,1.8,1.6
			s1.6,0.6,2.7,0.6s1.9-0.2,2.7-0.6s1.4-0.9,1.8-1.6c0.5-0.7,0.8-1.4,1.1-2.3c0.2-0.8,0.3-1.7,0.3-2.6c0-0.9-0.1-1.7-0.3-2.6
			c-0.2-0.8-0.6-1.6-1.1-2.3c-0.5-0.7-1.1-1.2-1.8-1.6c-0.8-0.4-1.6-0.6-2.7-0.6s-1.9,0.2-2.7,0.6c-0.8,0.4-1.4,0.9-1.8,1.6
			s-0.8,1.4-1.1,2.3c-0.2,0.8-0.3,1.7-0.3,2.6C208.3,119.6,208.4,120.4,208.6,121.3z"/>
		<path class="st6" d="M233.3,110.1c1.6,0,2.9,0.4,3.8,1.2c0.9,0.8,1.4,1.9,1.4,3.3c0,1-0.2,2-0.7,2.7c-0.5,0.8-1.2,1.3-2.3,1.6v0
			c0.5,0.1,0.9,0.3,1.2,0.5c0.3,0.2,0.6,0.5,0.7,0.8c0.2,0.3,0.3,0.7,0.4,1c0.1,0.4,0.2,0.8,0.2,1.2c0,0.4,0.1,0.8,0.1,1.3
			c0,0.4,0.1,0.9,0.1,1.3c0.1,0.4,0.2,0.8,0.3,1.2c0.1,0.4,0.3,0.7,0.5,1h-2.5c-0.2-0.2-0.3-0.4-0.3-0.7c-0.1-0.3-0.1-0.6-0.1-1
			c0-0.4,0-0.8,0-1.2c0-0.4-0.1-0.9-0.1-1.3c-0.1-0.4-0.1-0.8-0.2-1.2c-0.1-0.4-0.2-0.7-0.5-1c-0.2-0.3-0.5-0.5-0.8-0.7
			c-0.3-0.2-0.8-0.3-1.3-0.3h-5.6v7.3h-2.3v-17.1H233.3z M233.8,117.9c0.5-0.1,0.9-0.2,1.3-0.5c0.4-0.2,0.6-0.5,0.9-0.9
			c0.2-0.4,0.3-0.9,0.3-1.5c0-0.9-0.2-1.6-0.7-2.1c-0.5-0.5-1.3-0.8-2.3-0.8h-5.7v6h4.8C232.8,118,233.3,118,233.8,117.9z"/>
		<path class="st6" d="M246.5,112.1v-1.9h13.7v1.9h-5.7v15.2h-2.3v-15.2H246.5z"/>
		<path class="st6" d="M267.1,110.1l6.7,17.1h-2.5l-1.9-5.2h-7.2l-1.9,5.2h-2.3l6.7-17.1H267.1z M268.7,120.2l-2.9-8h0l-2.9,8H268.7
			z"/>
		<path class="st6" d="M273.9,110.1h2.7l4.3,6.7l4.5-6.7h2.5l-5.7,8.3l6,8.8h-2.8l-4.6-7.1l-4.8,7.1h-2.5l6-8.8L273.9,110.1z"/>
	</g>
</g>
<g id="revenue-text" class="st3">
	<g class="st4">
		<rect x="569" y="204.2" class="st0" width="123.5" height="35"/>
		<path class="st5" d="M577.9,233.1c1.3,1.2,2.9,2,4.8,2.4v-12.7c-1.7-0.4-3.2-0.9-4.4-1.4c-1.2-0.5-2.3-1.1-3.1-1.8
			c-0.8-0.7-1.4-1.5-1.8-2.5c-0.4-1-0.6-2.2-0.6-3.6c0-1.4,0.3-2.8,0.8-4c0.5-1.2,1.2-2.2,2.1-3.1c0.9-0.9,1.9-1.6,3.1-2.1
			c1.2-0.5,2.5-0.8,3.9-0.9v-3.2h2.6v3.2c2.6,0.3,4.7,1.3,6.2,2.9c1.5,1.6,2.6,3.8,3.3,6.6h-4.1c-0.6-3.2-2.4-5-5.4-5.6v11.8
			l2.9,0.8c0.6,0.2,1.4,0.4,2.3,0.8c0.9,0.4,1.7,1,2.5,1.7c0.8,0.7,1.5,1.6,2,2.6c0.6,1.1,0.8,2.3,0.8,3.8c0,1.6-0.3,3-0.8,4.2
			c-0.5,1.2-1.3,2.3-2.2,3.1c-0.9,0.9-2,1.6-3.3,2.1c-1.3,0.5-2.7,0.8-4.2,1v3.9h-2.6v-3.9c-3.2-0.3-5.7-1.4-7.6-3.3
			c-1.9-1.9-3-4.5-3.2-7.9h4.1C576,230.2,576.6,231.9,577.9,233.1z M578.8,208.9c-1.1,0.9-1.6,2.3-1.6,4.2c0,0.8,0.1,1.5,0.4,2.1
			c0.3,0.6,0.7,1.1,1.2,1.5c0.5,0.4,1.1,0.7,1.8,1c0.7,0.3,1.4,0.5,2.2,0.8v-11.2C581.1,207.4,579.8,208,578.8,208.9z M587.8,235
			c0.8-0.3,1.4-0.6,2-1.1c0.6-0.5,1-1.1,1.3-1.9c0.3-0.8,0.5-1.6,0.5-2.7c0-0.9-0.2-1.7-0.5-2.3c-0.3-0.6-0.8-1.2-1.3-1.6
			c-0.5-0.4-1.2-0.8-2-1.1c-0.8-0.3-1.6-0.6-2.4-0.8v12C586.2,235.4,587,235.3,587.8,235z"/>
		<path class="st5" d="M610.3,238.5v-24.4h-8.8v-3.3c1.2,0,2.3-0.1,3.4-0.3c1.1-0.2,2.1-0.5,3-1c0.9-0.5,1.6-1.1,2.2-2
			c0.6-0.8,1-1.9,1.2-3.2h3.1v34H610.3z"/>
		<path class="st5" d="M633.3,233.2v5.3H628v-5.3H633.3z"/>
		<path class="st5" d="M640,211.7c0.4-1.5,1.1-2.7,2.1-3.8c0.9-1.1,2.1-1.9,3.5-2.5c1.4-0.6,3-0.9,4.8-0.9c1.5,0,2.9,0.2,4.2,0.6
			c1.3,0.4,2.4,1.1,3.4,1.9c1,0.8,1.7,1.8,2.3,3c0.6,1.2,0.8,2.6,0.8,4.2c0,1.5-0.2,2.8-0.7,4c-0.5,1.2-1.1,2.2-1.8,3.1
			c-0.8,0.9-1.6,1.7-2.6,2.5c-1,0.7-2,1.4-3.1,2.1c-1.1,0.6-2.1,1.3-3.2,1.9s-2,1.3-2.9,2c-0.9,0.7-1.6,1.5-2.3,2.3
			c-0.6,0.8-1,1.8-1.2,2.8h17.5v3.6h-22.2c0.2-2,0.5-3.7,1.1-5.2c0.6-1.4,1.3-2.7,2.1-3.7c0.9-1.1,1.8-2,2.9-2.8
			c1.1-0.8,2.2-1.6,3.4-2.3c1.4-0.9,2.7-1.7,3.8-2.5c1.1-0.8,2-1.5,2.7-2.3s1.3-1.6,1.6-2.5c0.4-0.9,0.6-1.9,0.6-3.1
			c0-0.9-0.2-1.8-0.5-2.5c-0.4-0.8-0.8-1.4-1.4-1.9c-0.6-0.5-1.3-1-2.1-1.2c-0.8-0.3-1.6-0.4-2.5-0.4c-1.2,0-2.2,0.2-3,0.7
			c-0.8,0.5-1.5,1.1-2.1,1.9c-0.5,0.8-0.9,1.7-1.2,2.7c-0.2,1-0.3,2-0.3,3h-4.1C639.4,214.8,639.5,213.2,640,211.7z"/>
		<path class="st5" d="M682.1,209.5c-1-0.9-2.3-1.4-3.9-1.4c-1.7,0-3.1,0.4-4.2,1.3c-1.1,0.8-1.9,1.9-2.5,3.2
			c-0.6,1.3-1,2.7-1.2,4.2c-0.2,1.5-0.4,2.9-0.4,4.2l0.1,0.1c1-1.6,2.2-2.7,3.6-3.4c1.4-0.7,3.1-1.1,4.9-1.1c1.6,0,3.1,0.3,4.4,0.8
			c1.3,0.6,2.4,1.3,3.3,2.3c0.9,1,1.6,2.2,2,3.5c0.5,1.3,0.7,2.8,0.7,4.4c0,1.2-0.2,2.5-0.6,3.9c-0.4,1.3-1,2.6-1.9,3.7
			c-0.9,1.1-2,2-3.5,2.7c-1.5,0.7-3.3,1.1-5.4,1.1c-2.5,0-4.6-0.5-6.1-1.5c-1.5-1-2.7-2.3-3.6-3.9c-0.8-1.6-1.4-3.4-1.7-5.3
			c-0.3-1.9-0.4-3.8-0.4-5.6c0-2.3,0.2-4.6,0.6-6.8c0.4-2.2,1.1-4.1,2-5.8c1-1.7,2.2-3.1,3.8-4.1c1.6-1,3.6-1.5,6-1.5
			c2.8,0,5.1,0.7,6.7,2.2c1.7,1.5,2.6,3.6,2.9,6.5h-4.1C683.7,211.6,683.1,210.4,682.1,209.5z M674.7,220.8
			c-0.9,0.4-1.6,0.9-2.2,1.6c-0.6,0.7-1.1,1.5-1.4,2.4c-0.3,0.9-0.5,1.9-0.5,3s0.2,2,0.5,3c0.3,0.9,0.8,1.7,1.4,2.4s1.3,1.2,2.2,1.6
			c0.9,0.4,1.9,0.6,3,0.6s2.1-0.2,3-0.6c0.8-0.4,1.6-1,2.1-1.7c0.6-0.7,1-1.5,1.3-2.4c0.3-0.9,0.5-1.9,0.5-2.9c0-1.1-0.1-2.1-0.4-3
			c-0.3-0.9-0.7-1.8-1.3-2.4c-0.6-0.7-1.3-1.2-2.2-1.7c-0.9-0.4-1.9-0.6-3-0.6C676.6,220.2,675.6,220.4,674.7,220.8z"/>
	</g>
	<g class="st4">
		<rect x="493.3" y="254.2" class="st0" width="278.8" height="87.1"/>
		<path class="st6" d="M511.9,254.2c1.6,0,2.9,0.4,3.8,1.2s1.4,1.9,1.4,3.3c0,1-0.2,2-0.7,2.7c-0.5,0.8-1.2,1.3-2.3,1.6v0
			c0.5,0.1,0.9,0.3,1.2,0.5c0.3,0.2,0.6,0.5,0.7,0.8c0.2,0.3,0.3,0.7,0.4,1s0.2,0.8,0.2,1.2c0,0.4,0.1,0.8,0.1,1.3
			c0,0.4,0.1,0.9,0.1,1.3c0.1,0.4,0.2,0.8,0.3,1.2c0.1,0.4,0.3,0.7,0.5,1h-2.5c-0.2-0.2-0.3-0.4-0.3-0.7c-0.1-0.3-0.1-0.6-0.1-1
			c0-0.4,0-0.8,0-1.2c0-0.4-0.1-0.9-0.1-1.3c-0.1-0.4-0.1-0.8-0.2-1.2c-0.1-0.4-0.2-0.7-0.5-1s-0.5-0.5-0.8-0.7
			c-0.3-0.2-0.8-0.3-1.3-0.3h-5.6v7.3h-2.3v-17.1H511.9z M512.4,262c0.5-0.1,0.9-0.2,1.3-0.5c0.4-0.2,0.6-0.5,0.9-0.9
			c0.2-0.4,0.3-0.9,0.3-1.5c0-0.9-0.2-1.6-0.7-2.1c-0.5-0.5-1.3-0.8-2.3-0.8h-5.7v6h4.8C511.4,262.1,511.9,262,512.4,262z"/>
		<path class="st6" d="M532.2,254.2v1.9h-9.6v5.4h8.9v1.9h-8.9v5.9h9.6v1.9h-11.9v-17.1H532.2z"/>
		<path class="st6" d="M539.1,271.3l-6-17.1h2.4l4.9,14.9h0l4.9-14.9h2.4l-6.1,17.1H539.1z"/>
		<path class="st6" d="M561.5,254.2v1.9h-9.6v5.4h8.9v1.9h-8.9v5.9h9.6v1.9h-11.9v-17.1H561.5z"/>
		<path class="st6" d="M566.7,254.2l9,13.9h0v-13.9h2.2v17.1h-2.5l-9-13.8h0v13.8h-2.2v-17.1H566.7z"/>
		<path class="st6" d="M593.6,270.1c-1.2,1.1-2.8,1.6-5,1.6c-2.2,0-3.9-0.5-5.2-1.6s-1.9-2.7-1.9-5v-10.9h2.3v10.9
			c0,1.5,0.4,2.7,1.2,3.5c0.8,0.8,2,1.2,3.5,1.2c1.5,0,2.6-0.4,3.3-1.2s1.1-2,1.1-3.5v-10.9h2.3v10.9
			C595.3,267.3,594.7,269,593.6,270.1z"/>
		<path class="st6" d="M610.8,254.2v1.9h-9.6v5.4h8.9v1.9h-8.9v5.9h9.6v1.9H599v-17.1H610.8z"/>
		<path class="st6" d="M631.6,254.2v1.9h-9v5.4h7.9v1.9h-7.9v7.8h-2.3v-17.1H631.6z"/>
		<path class="st6" d="M633.6,259.4c0.3-1.1,0.9-2,1.5-2.9c0.7-0.8,1.5-1.5,2.6-2c1-0.5,2.2-0.7,3.6-0.7c1.4,0,2.6,0.2,3.6,0.7
			c1,0.5,1.9,1.2,2.6,2c0.7,0.8,1.2,1.8,1.5,2.9c0.3,1.1,0.5,2.2,0.5,3.4s-0.2,2.3-0.5,3.4c-0.3,1.1-0.9,2-1.5,2.9
			c-0.7,0.8-1.5,1.5-2.6,2c-1,0.5-2.2,0.7-3.6,0.7c-1.4,0-2.6-0.2-3.6-0.7c-1-0.5-1.9-1.1-2.6-2c-0.7-0.8-1.2-1.8-1.5-2.9
			c-0.3-1.1-0.5-2.2-0.5-3.4S633.3,260.5,633.6,259.4z M635.7,265.3c0.2,0.8,0.6,1.6,1.1,2.3c0.5,0.7,1.1,1.2,1.8,1.6
			s1.6,0.6,2.7,0.6s1.9-0.2,2.7-0.6s1.4-0.9,1.8-1.6c0.5-0.7,0.8-1.4,1.1-2.3c0.2-0.8,0.3-1.7,0.3-2.6c0-0.9-0.1-1.7-0.3-2.6
			c-0.2-0.8-0.6-1.6-1.1-2.3c-0.5-0.7-1.1-1.2-1.8-1.6s-1.6-0.6-2.7-0.6s-1.9,0.2-2.7,0.6s-1.4,0.9-1.8,1.6s-0.8,1.4-1.1,2.3
			c-0.2,0.8-0.3,1.7-0.3,2.6C635.4,263.6,635.5,264.5,635.7,265.3z"/>
		<path class="st6" d="M660.4,254.2c1.6,0,2.9,0.4,3.8,1.2s1.4,1.9,1.4,3.3c0,1-0.2,2-0.7,2.7c-0.5,0.8-1.2,1.3-2.3,1.6v0
			c0.5,0.1,0.9,0.3,1.2,0.5c0.3,0.2,0.6,0.5,0.7,0.8c0.2,0.3,0.3,0.7,0.4,1s0.2,0.8,0.2,1.2c0,0.4,0.1,0.8,0.1,1.3
			c0,0.4,0.1,0.9,0.1,1.3c0.1,0.4,0.2,0.8,0.3,1.2c0.1,0.4,0.3,0.7,0.5,1h-2.5c-0.2-0.2-0.3-0.4-0.3-0.7c-0.1-0.3-0.1-0.6-0.1-1
			c0-0.4,0-0.8,0-1.2c0-0.4-0.1-0.9-0.1-1.3c-0.1-0.4-0.1-0.8-0.2-1.2c-0.1-0.4-0.2-0.7-0.5-1s-0.5-0.5-0.8-0.7
			c-0.3-0.2-0.8-0.3-1.3-0.3h-5.6v7.3h-2.3v-17.1H660.4z M660.9,262c0.5-0.1,0.9-0.2,1.3-0.5c0.4-0.2,0.6-0.5,0.9-0.9
			c0.2-0.4,0.3-0.9,0.3-1.5c0-0.9-0.2-1.6-0.7-2.1c-0.5-0.5-1.3-0.8-2.3-0.8h-5.7v6h4.8C659.9,262.1,660.4,262,660.9,262z"/>
		<path class="st6" d="M677.7,254.2v15.2h9.1v1.9h-11.4v-17.1H677.7z"/>
		<path class="st6" d="M691.1,254.2v17.1h-2.3v-17.1H691.1z"/>
		<path class="st6" d="M706.3,270.7c-1.2,0.7-2.5,1-4.1,1c-1.4,0-2.6-0.2-3.6-0.7c-1-0.5-1.9-1.1-2.6-2c-0.7-0.8-1.2-1.8-1.5-2.9
			c-0.3-1.1-0.5-2.2-0.5-3.4s0.2-2.3,0.5-3.4s0.9-2,1.5-2.9c0.7-0.8,1.5-1.5,2.6-2c1-0.5,2.2-0.7,3.6-0.7c1.4,0,2.6,0.2,3.6,0.7
			c1,0.5,1.9,1.2,2.6,2c0.7,0.8,1.2,1.8,1.5,2.9c0.3,1.1,0.5,2.2,0.5,3.4c0,1.3-0.2,2.6-0.6,3.7c-0.4,1.2-1.1,2.2-1.9,3.1l2.3,1.8
			l-1.2,1.4L706.3,270.7z M706.2,268.2c0.7-0.7,1.2-1.5,1.5-2.5c0.3-1,0.5-2,0.5-3c0-0.9-0.1-1.7-0.3-2.6c-0.2-0.8-0.6-1.6-1.1-2.3
			c-0.5-0.7-1.1-1.2-1.8-1.6s-1.6-0.6-2.7-0.6s-1.9,0.2-2.7,0.6s-1.4,0.9-1.8,1.6s-0.8,1.4-1.1,2.3c-0.2,0.8-0.3,1.7-0.3,2.6
			c0,0.9,0.1,1.7,0.3,2.6c0.2,0.8,0.6,1.6,1.1,2.3c0.5,0.7,1.1,1.2,1.8,1.6s1.6,0.6,2.7,0.6c0.8,0,1.6-0.2,2.4-0.5l-1.9-1.5l1.2-1.4
			L706.2,268.2z"/>
		<path class="st6" d="M725.2,270.1c-1.2,1.1-2.8,1.6-5,1.6c-2.2,0-3.9-0.5-5.2-1.6s-1.9-2.7-1.9-5v-10.9h2.3v10.9
			c0,1.5,0.4,2.7,1.2,3.5c0.8,0.8,2,1.2,3.5,1.2c1.5,0,2.6-0.4,3.3-1.2s1.1-2,1.1-3.5v-10.9h2.3v10.9
			C726.9,267.3,726.3,269,725.2,270.1z"/>
		<path class="st6" d="M730.1,259.4c0.3-1.1,0.9-2,1.5-2.9c0.7-0.8,1.5-1.5,2.6-2c1-0.5,2.2-0.7,3.6-0.7c1.4,0,2.6,0.2,3.6,0.7
			c1,0.5,1.9,1.2,2.6,2c0.7,0.8,1.2,1.8,1.5,2.9c0.3,1.1,0.5,2.2,0.5,3.4s-0.2,2.3-0.5,3.4c-0.3,1.1-0.9,2-1.5,2.9
			c-0.7,0.8-1.5,1.5-2.6,2c-1,0.5-2.2,0.7-3.6,0.7c-1.4,0-2.6-0.2-3.6-0.7c-1-0.5-1.9-1.1-2.6-2c-0.7-0.8-1.2-1.8-1.5-2.9
			c-0.3-1.1-0.5-2.2-0.5-3.4S729.8,260.5,730.1,259.4z M732.2,265.3c0.2,0.8,0.6,1.6,1.1,2.3c0.5,0.7,1.1,1.2,1.8,1.6
			s1.6,0.6,2.7,0.6s1.9-0.2,2.7-0.6s1.4-0.9,1.8-1.6c0.5-0.7,0.8-1.4,1.1-2.3c0.2-0.8,0.3-1.7,0.3-2.6c0-0.9-0.1-1.7-0.3-2.6
			c-0.2-0.8-0.6-1.6-1.1-2.3c-0.5-0.7-1.1-1.2-1.8-1.6s-1.6-0.6-2.7-0.6s-1.9,0.2-2.7,0.6s-1.4,0.9-1.8,1.6s-0.8,1.4-1.1,2.3
			c-0.2,0.8-0.3,1.7-0.3,2.6C731.9,263.6,732,264.5,732.2,265.3z"/>
		<path class="st6" d="M756.9,254.2c1.6,0,2.9,0.4,3.8,1.2s1.4,1.9,1.4,3.3c0,1-0.2,2-0.7,2.7c-0.5,0.8-1.2,1.3-2.3,1.6v0
			c0.5,0.1,0.9,0.3,1.2,0.5c0.3,0.2,0.6,0.5,0.7,0.8c0.2,0.3,0.3,0.7,0.4,1s0.2,0.8,0.2,1.2c0,0.4,0.1,0.8,0.1,1.3
			c0,0.4,0.1,0.9,0.1,1.3c0.1,0.4,0.2,0.8,0.3,1.2c0.1,0.4,0.3,0.7,0.5,1h-2.5c-0.2-0.2-0.3-0.4-0.3-0.7c-0.1-0.3-0.1-0.6-0.1-1
			c0-0.4,0-0.8,0-1.2c0-0.4-0.1-0.9-0.1-1.3c-0.1-0.4-0.1-0.8-0.2-1.2c-0.1-0.4-0.2-0.7-0.5-1s-0.5-0.5-0.8-0.7
			c-0.3-0.2-0.8-0.3-1.3-0.3h-5.6v7.3h-2.3v-17.1H756.9z M757.3,262c0.5-0.1,0.9-0.2,1.3-0.5c0.4-0.2,0.6-0.5,0.9-0.9
			c0.2-0.4,0.3-0.9,0.3-1.5c0-0.9-0.2-1.6-0.7-2.1c-0.5-0.5-1.3-0.8-2.3-0.8h-5.7v6h4.8C756.4,262.1,756.9,262,757.3,262z"/>
		<path class="st6" d="M515.1,285.3c-0.8-0.6-1.7-0.8-2.9-0.8c-0.5,0-1,0-1.4,0.1c-0.5,0.1-0.9,0.3-1.2,0.5
			c-0.4,0.2-0.6,0.5-0.9,0.9c-0.2,0.4-0.3,0.8-0.3,1.4c0,0.5,0.2,1,0.5,1.3c0.3,0.3,0.7,0.6,1.2,0.8c0.5,0.2,1.1,0.4,1.8,0.5
			s1.3,0.3,2,0.4c0.7,0.2,1.3,0.3,2,0.6s1.2,0.5,1.8,0.9c0.5,0.4,0.9,0.8,1.2,1.4c0.3,0.6,0.5,1.3,0.5,2.1c0,0.9-0.2,1.7-0.6,2.3
			c-0.4,0.6-0.9,1.2-1.6,1.6c-0.6,0.4-1.4,0.7-2.1,0.9s-1.6,0.3-2.4,0.3c-1,0-1.9-0.1-2.7-0.4c-0.9-0.2-1.6-0.6-2.3-1.1
			c-0.6-0.5-1.2-1.1-1.5-1.9s-0.6-1.7-0.6-2.7h2.2c0,0.7,0.1,1.3,0.4,1.9c0.3,0.5,0.6,0.9,1.1,1.3s1,0.6,1.6,0.7
			c0.6,0.2,1.2,0.2,1.9,0.2c0.5,0,1,0,1.5-0.1c0.5-0.1,1-0.3,1.4-0.5c0.4-0.2,0.8-0.5,1-0.9c0.3-0.4,0.4-0.9,0.4-1.5
			c0-0.6-0.2-1.1-0.5-1.4c-0.3-0.4-0.7-0.7-1.2-0.9c-0.5-0.2-1.1-0.4-1.8-0.6c-0.7-0.1-1.3-0.3-2-0.4c-0.7-0.2-1.3-0.3-2-0.5
			c-0.7-0.2-1.2-0.5-1.8-0.8s-0.9-0.8-1.2-1.3c-0.3-0.5-0.5-1.2-0.5-2c0-0.9,0.2-1.6,0.5-2.2c0.4-0.6,0.8-1.2,1.4-1.6s1.2-0.7,2-0.9
			c0.7-0.2,1.5-0.3,2.3-0.3c0.9,0,1.7,0.1,2.4,0.3s1.4,0.5,2,1c0.6,0.4,1,1,1.3,1.7c0.3,0.7,0.5,1.5,0.5,2.4h-2.2
			C516.3,286.8,515.9,285.9,515.1,285.3z"/>
		<path class="st6" d="M520.3,284.9V283H534v1.9h-5.7v15.2H526v-15.2H520.3z"/>
		<path class="st6" d="M535.4,288.2c0.3-1.1,0.9-2,1.5-2.9c0.7-0.8,1.5-1.5,2.6-2c1-0.5,2.2-0.7,3.6-0.7c1.4,0,2.6,0.2,3.6,0.7
			c1,0.5,1.9,1.2,2.6,2c0.7,0.8,1.2,1.8,1.5,2.9c0.3,1.1,0.5,2.2,0.5,3.4s-0.2,2.3-0.5,3.4c-0.3,1.1-0.9,2-1.5,2.9
			c-0.7,0.8-1.5,1.5-2.6,2c-1,0.5-2.2,0.7-3.6,0.7c-1.4,0-2.6-0.2-3.6-0.7c-1-0.5-1.9-1.1-2.6-2c-0.7-0.8-1.2-1.8-1.5-2.9
			c-0.3-1.1-0.5-2.2-0.5-3.4S535.1,289.3,535.4,288.2z M537.5,294.1c0.2,0.8,0.6,1.6,1.1,2.3c0.5,0.7,1.1,1.2,1.8,1.6
			s1.6,0.6,2.7,0.6s1.9-0.2,2.7-0.6s1.4-0.9,1.8-1.6c0.5-0.7,0.8-1.4,1.1-2.3c0.2-0.8,0.3-1.7,0.3-2.6c0-0.9-0.1-1.7-0.3-2.6
			c-0.2-0.8-0.6-1.6-1.1-2.3c-0.5-0.7-1.1-1.2-1.8-1.6s-1.6-0.6-2.7-0.6s-1.9,0.2-2.7,0.6s-1.4,0.9-1.8,1.6s-0.8,1.4-1.1,2.3
			c-0.2,0.8-0.3,1.7-0.3,2.6C537.2,292.4,537.3,293.3,537.5,294.1z"/>
		<path class="st6" d="M562.2,283c1.6,0,2.9,0.4,3.8,1.2s1.4,1.9,1.4,3.3c0,1-0.2,2-0.7,2.7c-0.5,0.8-1.2,1.3-2.3,1.6v0
			c0.5,0.1,0.9,0.3,1.2,0.5c0.3,0.2,0.6,0.5,0.7,0.8c0.2,0.3,0.3,0.7,0.4,1s0.2,0.8,0.2,1.2c0,0.4,0.1,0.8,0.1,1.3
			c0,0.4,0.1,0.9,0.1,1.3c0.1,0.4,0.2,0.8,0.3,1.2c0.1,0.4,0.3,0.7,0.5,1h-2.5c-0.2-0.2-0.3-0.4-0.3-0.7c-0.1-0.3-0.1-0.6-0.1-1
			c0-0.4,0-0.8,0-1.2c0-0.4-0.1-0.9-0.1-1.3c-0.1-0.4-0.1-0.8-0.2-1.2c-0.1-0.4-0.2-0.7-0.5-1s-0.5-0.5-0.8-0.7
			c-0.3-0.2-0.8-0.3-1.3-0.3h-5.6v7.3h-2.3V283H562.2z M562.7,290.8c0.5-0.1,0.9-0.2,1.3-0.5c0.4-0.2,0.6-0.5,0.9-0.9
			c0.2-0.4,0.3-0.9,0.3-1.5c0-0.9-0.2-1.6-0.7-2.1c-0.5-0.5-1.3-0.8-2.3-0.8h-5.7v6h4.8C561.7,290.9,562.2,290.8,562.7,290.8z"/>
		<path class="st6" d="M582.4,283v1.9h-9.6v5.4h8.9v1.9h-8.9v5.9h9.6v1.9h-11.9V283H582.4z"/>
		<path class="st6" d="M588,297.5v2.4c0,0.9-0.2,1.7-0.6,2.4s-1.1,1.1-2,1.4v-1.2c0.3-0.1,0.5-0.2,0.7-0.4c0.2-0.2,0.3-0.4,0.4-0.6
			c0.1-0.2,0.2-0.4,0.2-0.7s0.1-0.4,0-0.6h-1.4v-2.7H588z"/>
		<path class="st6" d="M604.4,283c2.6,0,4.7,0.7,6.1,2c1.4,1.3,2.1,3.4,2.1,6.1c0,1.4-0.2,2.7-0.5,3.8s-0.8,2-1.5,2.8
			c-0.7,0.8-1.5,1.3-2.6,1.7c-1,0.4-2.3,0.6-3.7,0.6h-5.9V283H604.4z M604.6,298.2c0.3,0,0.6,0,1-0.1c0.4,0,0.8-0.1,1.2-0.3
			s0.9-0.4,1.3-0.7s0.8-0.7,1.1-1.2s0.6-1.1,0.8-1.9s0.3-1.6,0.3-2.7c0-1-0.1-1.9-0.3-2.7c-0.2-0.8-0.5-1.5-1-2.1s-1-1-1.8-1.3
			c-0.7-0.3-1.6-0.4-2.7-0.4h-3.8v13.3H604.6z"/>
		<path class="st6" d="M617.8,283v17.1h-2.3V283H617.8z"/>
		<path class="st6" d="M630.3,285.3c-0.8-0.6-1.7-0.8-2.9-0.8c-0.5,0-1,0-1.4,0.1c-0.5,0.1-0.9,0.3-1.2,0.5
			c-0.4,0.2-0.6,0.5-0.9,0.9c-0.2,0.4-0.3,0.8-0.3,1.4c0,0.5,0.2,1,0.5,1.3c0.3,0.3,0.7,0.6,1.2,0.8c0.5,0.2,1.1,0.4,1.8,0.5
			s1.3,0.3,2,0.4c0.7,0.2,1.3,0.3,2,0.6s1.2,0.5,1.8,0.9c0.5,0.4,0.9,0.8,1.2,1.4c0.3,0.6,0.5,1.3,0.5,2.1c0,0.9-0.2,1.7-0.6,2.3
			c-0.4,0.6-0.9,1.2-1.6,1.6c-0.6,0.4-1.4,0.7-2.1,0.9s-1.6,0.3-2.4,0.3c-1,0-1.9-0.1-2.7-0.4c-0.9-0.2-1.6-0.6-2.3-1.1
			c-0.6-0.5-1.2-1.1-1.5-1.9s-0.6-1.7-0.6-2.7h2.2c0,0.7,0.1,1.3,0.4,1.9c0.3,0.5,0.6,0.9,1.1,1.3s1,0.6,1.6,0.7
			c0.6,0.2,1.2,0.2,1.9,0.2c0.5,0,1,0,1.5-0.1c0.5-0.1,1-0.3,1.4-0.5c0.4-0.2,0.8-0.5,1-0.9c0.3-0.4,0.4-0.9,0.4-1.5
			c0-0.6-0.2-1.1-0.5-1.4c-0.3-0.4-0.7-0.7-1.2-0.9c-0.5-0.2-1.1-0.4-1.8-0.6c-0.7-0.1-1.3-0.3-2-0.4c-0.7-0.2-1.3-0.3-2-0.5
			c-0.7-0.2-1.2-0.5-1.8-0.8s-0.9-0.8-1.2-1.3c-0.3-0.5-0.5-1.2-0.5-2c0-0.9,0.2-1.6,0.5-2.2c0.4-0.6,0.8-1.2,1.4-1.6s1.2-0.7,2-0.9
			c0.7-0.2,1.5-0.3,2.3-0.3c0.9,0,1.7,0.1,2.4,0.3s1.4,0.5,2,1c0.6,0.4,1,1,1.3,1.7c0.3,0.7,0.5,1.5,0.5,2.4h-2.2
			C631.5,286.8,631,285.9,630.3,285.3z"/>
		<path class="st6" d="M635.4,284.9V283h13.7v1.9h-5.7v15.2h-2.3v-15.2H635.4z"/>
		<path class="st6" d="M659.1,283c1.6,0,2.9,0.4,3.8,1.2s1.4,1.9,1.4,3.3c0,1-0.2,2-0.7,2.7c-0.5,0.8-1.2,1.3-2.3,1.6v0
			c0.5,0.1,0.9,0.3,1.2,0.5c0.3,0.2,0.6,0.5,0.7,0.8c0.2,0.3,0.3,0.7,0.4,1s0.2,0.8,0.2,1.2c0,0.4,0.1,0.8,0.1,1.3
			c0,0.4,0.1,0.9,0.1,1.3c0.1,0.4,0.2,0.8,0.3,1.2c0.1,0.4,0.3,0.7,0.5,1h-2.5c-0.2-0.2-0.3-0.4-0.3-0.7c-0.1-0.3-0.1-0.6-0.1-1
			c0-0.4,0-0.8,0-1.2c0-0.4-0.1-0.9-0.1-1.3c-0.1-0.4-0.1-0.8-0.2-1.2c-0.1-0.4-0.2-0.7-0.5-1s-0.5-0.5-0.8-0.7
			c-0.3-0.2-0.8-0.3-1.3-0.3h-5.6v7.3H651V283H659.1z M659.6,290.8c0.5-0.1,0.9-0.2,1.3-0.5c0.4-0.2,0.6-0.5,0.9-0.9
			c0.2-0.4,0.3-0.9,0.3-1.5c0-0.9-0.2-1.6-0.7-2.1c-0.5-0.5-1.3-0.8-2.3-0.8h-5.7v6h4.8C658.6,290.9,659.1,290.8,659.6,290.8z"/>
		<path class="st6" d="M669.8,283v17.1h-2.3V283H669.8z"/>
		<path class="st6" d="M679.9,283c0.4,0,0.8,0,1.2,0c0.4,0,0.8,0,1.3,0.1s0.8,0.1,1.2,0.2c0.4,0.1,0.7,0.2,0.9,0.4
			c0.6,0.3,1,0.8,1.4,1.4c0.4,0.6,0.6,1.3,0.6,2.2c0,0.9-0.2,1.7-0.7,2.4c-0.4,0.7-1.1,1.2-1.9,1.5v0c1.1,0.2,1.9,0.7,2.4,1.4
			c0.6,0.7,0.8,1.6,0.8,2.7c0,0.6-0.1,1.2-0.3,1.8c-0.2,0.6-0.6,1.1-1,1.6c-0.4,0.5-1,0.8-1.6,1.1c-0.6,0.3-1.4,0.4-2.2,0.4h-8.3
			V283H679.9z M680.5,290.4c1.3,0,2.2-0.2,2.8-0.7s0.9-1.1,0.9-2.1c0-0.6-0.1-1.1-0.3-1.4c-0.2-0.4-0.5-0.6-0.8-0.8
			s-0.7-0.3-1.2-0.4c-0.4-0.1-0.9-0.1-1.4-0.1h-4.6v5.4H680.5z M681.7,298.2c1,0,1.8-0.3,2.4-0.8c0.6-0.5,0.9-1.3,0.9-2.3
			c0-0.6-0.1-1-0.3-1.4s-0.5-0.7-0.8-0.9c-0.3-0.2-0.7-0.4-1.2-0.5s-0.9-0.1-1.4-0.1h-5.2v5.9H681.7z"/>
		<path class="st6" d="M702,298.9c-1.2,1.1-2.8,1.6-5,1.6c-2.2,0-3.9-0.5-5.2-1.6s-1.9-2.7-1.9-5V283h2.3v10.9
			c0,1.5,0.4,2.7,1.2,3.5c0.8,0.8,2,1.2,3.5,1.2c1.5,0,2.6-0.4,3.3-1.2s1.1-2,1.1-3.5V283h2.3v10.9
			C703.8,296.1,703.2,297.8,702,298.9z"/>
		<path class="st6" d="M705.6,284.9V283h13.7v1.9h-5.7v15.2h-2.3v-15.2H705.6z"/>
		<path class="st6" d="M720.8,288.2c0.3-1.1,0.9-2,1.5-2.9c0.7-0.8,1.5-1.5,2.6-2c1-0.5,2.2-0.7,3.6-0.7c1.4,0,2.6,0.2,3.6,0.7
			c1,0.5,1.9,1.2,2.6,2c0.7,0.8,1.2,1.8,1.5,2.9c0.3,1.1,0.5,2.2,0.5,3.4s-0.2,2.3-0.5,3.4c-0.3,1.1-0.9,2-1.5,2.9
			c-0.7,0.8-1.5,1.5-2.6,2c-1,0.5-2.2,0.7-3.6,0.7c-1.4,0-2.6-0.2-3.6-0.7c-1-0.5-1.9-1.1-2.6-2c-0.7-0.8-1.2-1.8-1.5-2.9
			c-0.3-1.1-0.5-2.2-0.5-3.4S720.4,289.3,720.8,288.2z M722.9,294.1c0.2,0.8,0.6,1.6,1.1,2.3c0.5,0.7,1.1,1.2,1.8,1.6
			s1.6,0.6,2.7,0.6s1.9-0.2,2.7-0.6s1.4-0.9,1.8-1.6c0.5-0.7,0.8-1.4,1.1-2.3c0.2-0.8,0.3-1.7,0.3-2.6c0-0.9-0.1-1.7-0.3-2.6
			c-0.2-0.8-0.6-1.6-1.1-2.3c-0.5-0.7-1.1-1.2-1.8-1.6s-1.6-0.6-2.7-0.6s-1.9,0.2-2.7,0.6s-1.4,0.9-1.8,1.6s-0.8,1.4-1.1,2.3
			c-0.2,0.8-0.3,1.7-0.3,2.6C722.5,292.4,722.6,293.3,722.9,294.1z"/>
		<path class="st6" d="M747.5,283c1.6,0,2.9,0.4,3.8,1.2s1.4,1.9,1.4,3.3c0,1-0.2,2-0.7,2.7c-0.5,0.8-1.2,1.3-2.3,1.6v0
			c0.5,0.1,0.9,0.3,1.2,0.5c0.3,0.2,0.6,0.5,0.7,0.8c0.2,0.3,0.3,0.7,0.4,1s0.2,0.8,0.2,1.2c0,0.4,0.1,0.8,0.1,1.3
			c0,0.4,0.1,0.9,0.1,1.3c0.1,0.4,0.2,0.8,0.3,1.2c0.1,0.4,0.3,0.7,0.5,1h-2.5c-0.2-0.2-0.3-0.4-0.3-0.7c-0.1-0.3-0.1-0.6-0.1-1
			c0-0.4,0-0.8,0-1.2c0-0.4-0.1-0.9-0.1-1.3c-0.1-0.4-0.1-0.8-0.2-1.2c-0.1-0.4-0.2-0.7-0.5-1s-0.5-0.5-0.8-0.7
			c-0.3-0.2-0.8-0.3-1.3-0.3h-5.6v7.3h-2.3V283H747.5z M748,290.8c0.5-0.1,0.9-0.2,1.3-0.5c0.4-0.2,0.6-0.5,0.9-0.9
			c0.2-0.4,0.3-0.9,0.3-1.5c0-0.9-0.2-1.6-0.7-2.1c-0.5-0.5-1.3-0.8-2.3-0.8h-5.7v6h4.8C747,290.9,747.5,290.8,748,290.8z"/>
		<path class="st6" d="M758.7,297.5v2.4c0,0.9-0.2,1.7-0.6,2.4s-1.1,1.1-2,1.4v-1.2c0.3-0.1,0.5-0.2,0.7-0.4
			c0.2-0.2,0.3-0.4,0.4-0.6c0.1-0.2,0.2-0.4,0.2-0.7s0.1-0.4,0-0.6H756v-2.7H758.7z"/>
		<path class="st6" d="M532.4,311.8l5.4,14.4l5.4-14.4h3.1v17.1h-2.2v-14.3h0l-5.4,14.3h-1.9l-5.4-14.3h0v14.3h-2.2v-17.1H532.4z"/>
		<path class="st6" d="M557.3,311.8l6.7,17.1h-2.5l-1.9-5.2h-7.2l-1.9,5.2h-2.3l6.7-17.1H557.3z M558.9,321.8l-2.9-8h0l-2.9,8H558.9
			z"/>
		<path class="st6" d="M568.1,311.8l9,13.9h0v-13.9h2.2v17.1h-2.5l-9-13.8h0v13.8h-2.2v-17.1H568.1z"/>
		<path class="st6" d="M594.9,327.7c-1.2,1.1-2.8,1.6-5,1.6c-2.2,0-3.9-0.5-5.2-1.6c-1.2-1-1.9-2.7-1.9-5v-10.9h2.3v10.9
			c0,1.5,0.4,2.7,1.2,3.5c0.8,0.8,2,1.2,3.5,1.2c1.5,0,2.6-0.4,3.3-1.2s1.1-2,1.1-3.5v-10.9h2.3v10.9
			C596.7,324.9,596.1,326.6,594.9,327.7z"/>
		<path class="st6" d="M611.6,311.8v1.9h-9v5.4h7.9v1.9h-7.9v7.8h-2.3v-17.1H611.6z"/>
		<path class="st6" d="M620,311.8l6.7,17.1h-2.5l-1.9-5.2H615l-1.9,5.2h-2.3l6.7-17.1H620z M621.6,321.8l-2.9-8h0l-2.9,8H621.6z"/>
		<path class="st6" d="M638.7,314.2c-0.9-0.6-1.9-0.9-3.1-0.9c-1,0-1.9,0.2-2.6,0.6c-0.7,0.4-1.3,0.9-1.8,1.5
			c-0.5,0.6-0.8,1.4-1,2.2c-0.2,0.8-0.3,1.7-0.3,2.6c0,1,0.1,1.9,0.3,2.8c0.2,0.9,0.6,1.6,1,2.3c0.5,0.6,1.1,1.2,1.8,1.5
			c0.7,0.4,1.6,0.6,2.6,0.6c0.8,0,1.4-0.1,2-0.4c0.6-0.2,1.1-0.6,1.5-1s0.8-1,1-1.6c0.2-0.6,0.4-1.3,0.4-2h2.3c-0.2,2.2-1,3.8-2.2,5
			s-3,1.8-5.2,1.8c-1.3,0-2.5-0.2-3.5-0.7c-1-0.5-1.8-1.1-2.5-1.9c-0.7-0.8-1.1-1.7-1.5-2.8c-0.3-1.1-0.5-2.3-0.5-3.5
			s0.2-2.4,0.5-3.5c0.4-1.1,0.9-2.1,1.5-2.9c0.7-0.8,1.5-1.5,2.5-1.9c1-0.5,2.2-0.7,3.5-0.7c0.9,0,1.7,0.1,2.5,0.4
			c0.8,0.2,1.5,0.6,2.1,1.1s1.1,1,1.6,1.7c0.4,0.7,0.7,1.5,0.8,2.4h-2.3C640.1,315.7,639.6,314.8,638.7,314.2z"/>
		<path class="st6" d="M643.9,313.7v-1.9h13.7v1.9h-5.7v15.2h-2.3v-15.2H643.9z"/>
		<path class="st6" d="M671.4,327.7c-1.2,1.1-2.8,1.6-5,1.6c-2.2,0-3.9-0.5-5.2-1.6c-1.2-1-1.9-2.7-1.9-5v-10.9h2.3v10.9
			c0,1.5,0.4,2.7,1.2,3.5c0.8,0.8,2,1.2,3.5,1.2c1.5,0,2.6-0.4,3.3-1.2s1.1-2,1.1-3.5v-10.9h2.3v10.9
			C673.1,324.9,672.6,326.6,671.4,327.7z"/>
		<path class="st6" d="M684.8,311.8c1.6,0,2.9,0.4,3.8,1.2c0.9,0.8,1.4,1.9,1.4,3.3c0,1-0.2,2-0.7,2.7c-0.5,0.8-1.2,1.3-2.3,1.6v0
			c0.5,0.1,0.9,0.3,1.2,0.5c0.3,0.2,0.6,0.5,0.7,0.8c0.2,0.3,0.3,0.7,0.4,1c0.1,0.4,0.2,0.8,0.2,1.2c0,0.4,0.1,0.8,0.1,1.3
			c0,0.4,0.1,0.9,0.1,1.3c0.1,0.4,0.2,0.8,0.3,1.2s0.3,0.7,0.5,1h-2.5c-0.2-0.2-0.3-0.4-0.3-0.7c-0.1-0.3-0.1-0.6-0.1-1
			c0-0.4,0-0.8,0-1.2s-0.1-0.9-0.1-1.3c-0.1-0.4-0.1-0.8-0.2-1.2s-0.2-0.7-0.5-1c-0.2-0.3-0.5-0.5-0.8-0.7c-0.3-0.2-0.8-0.3-1.3-0.3
			h-5.6v7.3h-2.3v-17.1H684.8z M685.3,319.6c0.5-0.1,0.9-0.2,1.3-0.5c0.4-0.2,0.6-0.5,0.9-0.9c0.2-0.4,0.3-0.9,0.3-1.5
			c0-0.9-0.2-1.6-0.7-2.1c-0.5-0.5-1.3-0.8-2.3-0.8h-5.7v6h4.8C684.3,319.7,684.8,319.6,685.3,319.6z"/>
		<path class="st6" d="M705.1,311.8v1.9h-9.6v5.4h8.9v1.9h-8.9v5.9h9.6v1.9h-11.9v-17.1H705.1z"/>
		<path class="st6" d="M716,311.8c1.6,0,2.9,0.4,3.8,1.2c0.9,0.8,1.4,1.9,1.4,3.3c0,1-0.2,2-0.7,2.7c-0.5,0.8-1.2,1.3-2.3,1.6v0
			c0.5,0.1,0.9,0.3,1.2,0.5c0.3,0.2,0.6,0.5,0.7,0.8c0.2,0.3,0.3,0.7,0.4,1c0.1,0.4,0.2,0.8,0.2,1.2c0,0.4,0.1,0.8,0.1,1.3
			c0,0.4,0.1,0.9,0.1,1.3c0.1,0.4,0.2,0.8,0.3,1.2s0.3,0.7,0.5,1h-2.5c-0.2-0.2-0.3-0.4-0.3-0.7c-0.1-0.3-0.1-0.6-0.1-1
			c0-0.4,0-0.8,0-1.2s-0.1-0.9-0.1-1.3c-0.1-0.4-0.1-0.8-0.2-1.2s-0.2-0.7-0.5-1c-0.2-0.3-0.5-0.5-0.8-0.7c-0.3-0.2-0.8-0.3-1.3-0.3
			h-5.6v7.3h-2.3v-17.1H716z M716.4,319.6c0.5-0.1,0.9-0.2,1.3-0.5c0.4-0.2,0.6-0.5,0.9-0.9c0.2-0.4,0.3-0.9,0.3-1.5
			c0-0.9-0.2-1.6-0.7-2.1c-0.5-0.5-1.3-0.8-2.3-0.8h-5.7v6h4.8C715.4,319.7,716,319.6,716.4,319.6z"/>
		<path class="st6" d="M732.9,314.1c-0.8-0.6-1.7-0.8-2.9-0.8c-0.5,0-1,0-1.4,0.1c-0.5,0.1-0.9,0.3-1.2,0.5
			c-0.4,0.2-0.6,0.5-0.9,0.9c-0.2,0.4-0.3,0.8-0.3,1.4c0,0.5,0.2,1,0.5,1.3c0.3,0.3,0.7,0.6,1.2,0.8c0.5,0.2,1.1,0.4,1.8,0.5
			s1.3,0.3,2,0.4c0.7,0.2,1.3,0.3,2,0.6s1.2,0.5,1.8,0.9c0.5,0.4,0.9,0.8,1.2,1.4c0.3,0.6,0.5,1.3,0.5,2.1c0,0.9-0.2,1.7-0.6,2.3
			s-0.9,1.2-1.6,1.6c-0.6,0.4-1.4,0.7-2.1,0.9c-0.8,0.2-1.6,0.3-2.4,0.3c-1,0-1.9-0.1-2.7-0.4c-0.9-0.2-1.6-0.6-2.3-1.1
			c-0.6-0.5-1.2-1.1-1.5-1.9c-0.4-0.8-0.6-1.7-0.6-2.7h2.2c0,0.7,0.1,1.3,0.4,1.9c0.3,0.5,0.6,0.9,1.1,1.3s1,0.6,1.6,0.7
			c0.6,0.2,1.2,0.2,1.9,0.2c0.5,0,1,0,1.5-0.1s1-0.3,1.4-0.5c0.4-0.2,0.8-0.5,1-0.9c0.3-0.4,0.4-0.9,0.4-1.5c0-0.6-0.2-1.1-0.5-1.4
			c-0.3-0.4-0.7-0.7-1.2-0.9c-0.5-0.2-1.1-0.4-1.8-0.6c-0.7-0.1-1.3-0.3-2-0.4c-0.7-0.2-1.3-0.3-2-0.5c-0.7-0.2-1.2-0.5-1.8-0.8
			s-0.9-0.8-1.2-1.3c-0.3-0.5-0.5-1.2-0.5-2c0-0.9,0.2-1.6,0.5-2.2c0.4-0.6,0.8-1.2,1.4-1.6s1.2-0.7,2-0.9s1.5-0.3,2.3-0.3
			c0.9,0,1.7,0.1,2.4,0.3s1.4,0.5,2,1c0.6,0.4,1,1,1.3,1.7c0.3,0.7,0.5,1.5,0.5,2.4h-2.2C734.1,315.6,733.7,314.7,732.9,314.1z"/>
	</g>
</g>
<g>
</g>
<g>
</g>
<g>
</g>
<g>
</g>
<g>
</g>
<g>
</g>
</svg>
