<?xml version="1.0" encoding="utf-8"?>
<!-- Generator: Adobe Illustrator 18.1.1, SVG Export Plug-In . SVG Version: 6.00 Build 0)  -->
<svg version="1.1" id="Layer_1" xmlns="http://www.w3.org/2000/svg" xmlns:xlink="http://www.w3.org/1999/xlink" x="0px" y="0px"
	 viewBox="0 0 792 612" style="enable-background:new 0 0 792 612;" xml:space="preserve">
<style type="text/css">
	.st0{fill:none;}
	.st1{fill:#2C3E99;}
	.st2{fill:#C9CACC;}
	.st3{display:none;}
	.st4{display:inline;}
	.st5{fill:#8DC640;}
	.st6{fill:#231F20;}
</style>
<rect id="background" x="63.2" y="48.9" class="st0" width="700.9" height="500.6"/>
<rect id="federal" x="297.9" y="125" class="st1" width="181.7" height="31.2"/>
<path id="sales" class="st1" d="M297.9,103.8h180.8c3.9,0-1.5-5.8-3.4-7.6c-0.6-0.5-1.2-1-1.8-1.4l-14.6-9.7c-2-1.3-4.3-2-6.7-2
	H328.3c-2.2,0-4.3,0.6-6.2,1.7l-14.3,8.6C307.7,93.4,295.1,100.3,297.9,103.8z"/>
<path class="st2" d="M326,82h128.6c0.6,0,1.1-0.5,1.1-1.1v-0.5c0-2.2-1.8-4-4-4H328.1c-1.8,0-3.2,1.4-3.2,3.2V81
	C324.9,81.6,325.4,82,326,82z"/>
<path id="state" class="st1" d="M298.2,123.1h181c0.2,0,0.3-0.2,0.3-0.3v-16.3c0-0.2-0.2-0.3-0.3-0.3h-181c-0.2,0-0.3,0.2-0.3,0.3
	v16.3C297.9,123,298,123.1,298.2,123.1z"/>
<path class="st2" d="M304.4,525.9h168c0.6,0,1.1-0.5,1.1-1.1v-2.7c0-0.6-0.5-1.1-1.1-1.1h-168c-0.6,0-1.1,0.5-1.1,1.1v2.7
	C303.3,525.4,303.8,525.9,304.4,525.9z"/>
<g id="revenue">
	<rect x="297.9" y="158.1" class="st1" width="181.7" height="357.5"/>
	<polygon class="st1" points="304.3,520.4 473.4,520.4 479.6,515.5 297.9,515.5 	"/>
</g>
<g id="sales-text" class="st3">
	<g class="st4">
		<rect x="561.8" y="64" class="st0" width="123.5" height="35"/>
		<path class="st5" d="M570.7,92.9c1.3,1.2,2.9,2,4.8,2.4V82.6c-1.7-0.4-3.2-0.9-4.4-1.4c-1.2-0.5-2.3-1.1-3.1-1.8
			c-0.8-0.7-1.4-1.5-1.8-2.5c-0.4-1-0.6-2.2-0.6-3.6c0-1.4,0.3-2.8,0.8-4c0.5-1.2,1.2-2.2,2.1-3.1c0.9-0.9,1.9-1.6,3.1-2.1
			c1.2-0.5,2.5-0.8,3.9-0.9V60h2.6v3.2c2.6,0.3,4.7,1.3,6.2,2.9c1.5,1.6,2.6,3.8,3.3,6.6h-4.1c-0.6-3.2-2.4-5-5.4-5.6V79l2.9,0.8
			c0.6,0.2,1.4,0.4,2.3,0.8c0.9,0.4,1.7,1,2.5,1.7c0.8,0.7,1.5,1.6,2,2.6c0.6,1.1,0.8,2.3,0.8,3.8c0,1.6-0.3,3-0.8,4.2
			c-0.5,1.2-1.3,2.3-2.2,3.1c-0.9,0.9-2,1.6-3.3,2.1c-1.3,0.5-2.7,0.8-4.2,1v3.9h-2.6v-3.9c-3.2-0.3-5.7-1.4-7.6-3.3
			c-1.9-1.9-3-4.5-3.2-7.9h4.1C568.8,90,569.4,91.7,570.7,92.9z M571.6,68.7c-1.1,0.9-1.6,2.3-1.6,4.2c0,0.8,0.1,1.5,0.4,2.1
			c0.3,0.6,0.7,1.1,1.2,1.5c0.5,0.4,1.1,0.7,1.8,1c0.7,0.3,1.4,0.5,2.2,0.8V67C573.9,67.2,572.6,67.8,571.6,68.7z M580.6,94.8
			c0.8-0.3,1.4-0.6,2-1.1c0.6-0.5,1-1.1,1.3-1.9c0.3-0.8,0.5-1.6,0.5-2.7c0-0.9-0.2-1.7-0.5-2.3c-0.3-0.6-0.8-1.2-1.3-1.6
			c-0.5-0.4-1.2-0.8-2-1.1c-0.8-0.3-1.6-0.6-2.4-0.8v12C579,95.2,579.8,95,580.6,94.8z"/>
		<path class="st5" d="M592.2,77.7c0.1-1.3,0.2-2.7,0.5-3.9c0.3-1.3,0.6-2.5,1.1-3.6c0.5-1.2,1.1-2.2,2-3c0.8-0.9,1.9-1.6,3.1-2.1
			c1.3-0.5,2.8-0.8,4.5-0.8s3.3,0.3,4.5,0.8c1.3,0.5,2.3,1.2,3.1,2.1c0.8,0.9,1.5,1.9,2,3c0.5,1.2,0.8,2.4,1.1,3.6
			c0.3,1.3,0.4,2.6,0.5,3.9c0.1,1.3,0.1,2.6,0.1,3.9s0,2.5-0.1,3.9c-0.1,1.3-0.2,2.7-0.5,3.9c-0.3,1.3-0.6,2.5-1.1,3.6
			c-0.5,1.1-1.1,2.1-2,3c-0.8,0.9-1.9,1.5-3.1,2c-1.2,0.5-2.8,0.7-4.6,0.7c-1.8,0-3.3-0.2-4.5-0.7c-1.3-0.5-2.3-1.2-3.1-2
			c-0.8-0.9-1.5-1.9-2-3c-0.5-1.1-0.8-2.3-1.1-3.6c-0.3-1.3-0.4-2.6-0.5-3.9c-0.1-1.3-0.1-2.6-0.1-3.9S592.2,79,592.2,77.7z
			 M596.6,85.8c0.1,1.6,0.3,3.1,0.8,4.5c0.4,1.4,1.1,2.6,2.1,3.5c1,1,2.3,1.4,4,1.4c1.7,0,3.1-0.5,4-1.4s1.7-2.1,2.1-3.5
			c0.4-1.4,0.7-2.9,0.8-4.5c0.1-1.6,0.1-3,0.1-4.3c0-0.8,0-1.8,0-2.8c0-1-0.1-2-0.2-3c-0.1-1-0.4-2-0.6-3c-0.3-1-0.7-1.8-1.2-2.5
			c-0.5-0.7-1.2-1.3-2-1.8c-0.8-0.4-1.8-0.7-2.9-0.7c-1.2,0-2.1,0.2-2.9,0.7c-0.8,0.4-1.5,1-2,1.8c-0.5,0.7-0.9,1.6-1.2,2.5
			c-0.3,1-0.5,1.9-0.6,3c-0.1,1-0.2,2-0.2,3c0,1,0,1.9,0,2.8C596.5,82.8,596.5,84.3,596.6,85.8z"/>
		<path class="st5" d="M626.1,93v5.3h-5.3V93H626.1z"/>
		<path class="st5" d="M632.3,77.7c0.1-1.3,0.2-2.7,0.5-3.9c0.3-1.3,0.6-2.5,1.1-3.6c0.5-1.2,1.1-2.2,2-3c0.8-0.9,1.9-1.6,3.1-2.1
			c1.3-0.5,2.8-0.8,4.5-0.8s3.3,0.3,4.5,0.8c1.3,0.5,2.3,1.2,3.1,2.1c0.8,0.9,1.5,1.9,2,3c0.5,1.2,0.8,2.4,1.1,3.6
			c0.3,1.3,0.4,2.6,0.5,3.9c0.1,1.3,0.1,2.6,0.1,3.9s0,2.5-0.1,3.9c-0.1,1.3-0.2,2.7-0.5,3.9c-0.3,1.3-0.6,2.5-1.1,3.6
			c-0.5,1.1-1.1,2.1-2,3c-0.8,0.9-1.9,1.5-3.1,2c-1.2,0.5-2.8,0.7-4.6,0.7c-1.8,0-3.3-0.2-4.5-0.7c-1.3-0.5-2.3-1.2-3.1-2
			c-0.8-0.9-1.5-1.9-2-3c-0.5-1.1-0.8-2.3-1.1-3.6c-0.3-1.3-0.4-2.6-0.5-3.9c-0.1-1.3-0.1-2.6-0.1-3.9S632.2,79,632.3,77.7z
			 M636.6,85.8c0.1,1.6,0.3,3.1,0.8,4.5c0.4,1.4,1.1,2.6,2.1,3.5c1,1,2.3,1.4,4,1.4c1.7,0,3.1-0.5,4-1.4s1.7-2.1,2.1-3.5
			c0.4-1.4,0.7-2.9,0.8-4.5c0.1-1.6,0.1-3,0.1-4.3c0-0.8,0-1.8,0-2.8c0-1-0.1-2-0.2-3c-0.1-1-0.4-2-0.6-3c-0.3-1-0.7-1.8-1.2-2.5
			c-0.5-0.7-1.2-1.3-2-1.8c-0.8-0.4-1.8-0.7-2.9-0.7c-1.2,0-2.1,0.2-2.9,0.7c-0.8,0.4-1.5,1-2,1.8c-0.5,0.7-0.9,1.6-1.2,2.5
			c-0.3,1-0.5,1.9-0.6,3c-0.1,1-0.2,2-0.2,3c0,1,0,1.9,0,2.8C636.5,82.8,636.5,84.3,636.6,85.8z"/>
		<path class="st5" d="M674.9,69.3c-1-0.9-2.3-1.4-3.9-1.4c-1.7,0-3.1,0.4-4.2,1.3c-1.1,0.8-1.9,1.9-2.5,3.2c-0.6,1.3-1,2.7-1.2,4.2
			c-0.2,1.5-0.4,2.9-0.4,4.2l0.1,0.1c1-1.6,2.2-2.7,3.6-3.4c1.4-0.7,3.1-1.1,4.9-1.1c1.6,0,3.1,0.3,4.4,0.8c1.3,0.6,2.4,1.3,3.3,2.3
			c0.9,1,1.6,2.2,2,3.5c0.5,1.3,0.7,2.8,0.7,4.4c0,1.2-0.2,2.5-0.6,3.9c-0.4,1.3-1,2.6-1.9,3.7c-0.9,1.1-2,2-3.5,2.7
			c-1.5,0.7-3.3,1.1-5.4,1.1c-2.5,0-4.6-0.5-6.1-1.5c-1.5-1-2.7-2.3-3.6-3.9c-0.8-1.6-1.4-3.4-1.7-5.3c-0.3-1.9-0.4-3.8-0.4-5.6
			c0-2.3,0.2-4.6,0.6-6.8c0.4-2.2,1.1-4.1,2-5.8c1-1.7,2.2-3.1,3.8-4.1c1.6-1,3.6-1.5,6-1.5c2.8,0,5.1,0.7,6.7,2.2
			c1.7,1.5,2.6,3.6,2.9,6.5h-4.1C676.5,71.4,675.9,70.2,674.9,69.3z M667.5,80.6c-0.9,0.4-1.6,0.9-2.2,1.6c-0.6,0.7-1.1,1.5-1.4,2.4
			c-0.3,0.9-0.5,1.9-0.5,3s0.2,2,0.5,3c0.3,0.9,0.8,1.7,1.4,2.4s1.3,1.2,2.2,1.6c0.9,0.4,1.9,0.6,3,0.6s2.1-0.2,3-0.6
			c0.8-0.4,1.6-1,2.1-1.7c0.6-0.7,1-1.5,1.3-2.4c0.3-0.9,0.5-1.9,0.5-2.9c0-1.1-0.1-2.1-0.4-3c-0.3-0.9-0.7-1.8-1.3-2.4
			c-0.6-0.7-1.3-1.2-2.2-1.7c-0.9-0.4-1.9-0.6-3-0.6C669.4,80,668.4,80.2,667.5,80.6z"/>
	</g>
	<g class="st4">
		<rect x="561.6" y="109" class="st0" width="128.8" height="22.4"/>
		<path class="st6" d="M574.9,111.3c-0.8-0.6-1.7-0.8-2.9-0.8c-0.5,0-1,0-1.4,0.1c-0.5,0.1-0.9,0.3-1.2,0.5
			c-0.4,0.2-0.6,0.5-0.9,0.9c-0.2,0.4-0.3,0.8-0.3,1.4c0,0.5,0.2,1,0.5,1.3c0.3,0.3,0.7,0.6,1.2,0.8c0.5,0.2,1.1,0.4,1.8,0.5
			s1.3,0.3,2,0.4c0.7,0.2,1.3,0.3,2,0.6s1.2,0.5,1.8,0.9c0.5,0.4,0.9,0.8,1.2,1.4c0.3,0.6,0.5,1.3,0.5,2.1c0,0.9-0.2,1.7-0.6,2.3
			c-0.4,0.6-0.9,1.2-1.6,1.6c-0.6,0.4-1.4,0.7-2.1,0.9c-0.8,0.2-1.6,0.3-2.4,0.3c-1,0-1.9-0.1-2.7-0.4c-0.9-0.2-1.6-0.6-2.3-1.1
			c-0.6-0.5-1.2-1.1-1.5-1.9c-0.4-0.8-0.6-1.7-0.6-2.7h2.2c0,0.7,0.1,1.3,0.4,1.9s0.6,0.9,1.1,1.3s1,0.6,1.6,0.7
			c0.6,0.2,1.2,0.2,1.9,0.2c0.5,0,1,0,1.5-0.1c0.5-0.1,1-0.3,1.4-0.5s0.8-0.5,1-0.9c0.3-0.4,0.4-0.9,0.4-1.5c0-0.6-0.2-1.1-0.5-1.4
			c-0.3-0.4-0.7-0.7-1.2-0.9c-0.5-0.2-1.1-0.4-1.8-0.6c-0.7-0.1-1.3-0.3-2-0.4c-0.7-0.2-1.3-0.3-2-0.5c-0.7-0.2-1.2-0.5-1.8-0.8
			s-0.9-0.8-1.2-1.3c-0.3-0.5-0.5-1.2-0.5-2c0-0.9,0.2-1.6,0.5-2.2c0.4-0.6,0.8-1.2,1.4-1.6s1.2-0.7,2-0.9c0.7-0.2,1.5-0.3,2.3-0.3
			c0.9,0,1.7,0.1,2.4,0.3s1.4,0.5,2,1c0.6,0.4,1,1,1.3,1.7c0.3,0.7,0.5,1.5,0.5,2.4h-2.2C576.1,112.8,575.7,111.9,574.9,111.3z"/>
		<path class="st6" d="M589,109l6.7,17.1h-2.5l-1.9-5.2h-7.2l-1.9,5.2h-2.3l6.7-17.1H589z M590.6,119l-2.9-8h0l-2.9,8H590.6z"/>
		<path class="st6" d="M599.7,109v15.2h9.1v1.9h-11.4V109H599.7z"/>
		<path class="st6" d="M622.6,109v1.9H613v5.4h8.9v1.9H613v5.9h9.6v1.9h-11.9V109H622.6z"/>
		<path class="st6" d="M634,111.3c-0.8-0.6-1.7-0.8-2.9-0.8c-0.5,0-1,0-1.4,0.1c-0.5,0.1-0.9,0.3-1.2,0.5c-0.4,0.2-0.6,0.5-0.9,0.9
			c-0.2,0.4-0.3,0.8-0.3,1.4c0,0.5,0.2,1,0.5,1.3c0.3,0.3,0.7,0.6,1.2,0.8c0.5,0.2,1.1,0.4,1.8,0.5s1.3,0.3,2,0.4
			c0.7,0.2,1.3,0.3,2,0.6s1.2,0.5,1.8,0.9c0.5,0.4,0.9,0.8,1.2,1.4c0.3,0.6,0.5,1.3,0.5,2.1c0,0.9-0.2,1.7-0.6,2.3
			c-0.4,0.6-0.9,1.2-1.6,1.6c-0.6,0.4-1.4,0.7-2.1,0.9c-0.8,0.2-1.6,0.3-2.4,0.3c-1,0-1.9-0.1-2.7-0.4c-0.9-0.2-1.6-0.6-2.3-1.1
			c-0.6-0.5-1.2-1.1-1.5-1.9c-0.4-0.8-0.6-1.7-0.6-2.7h2.2c0,0.7,0.1,1.3,0.4,1.9s0.6,0.9,1.1,1.3s1,0.6,1.6,0.7
			c0.6,0.2,1.2,0.2,1.9,0.2c0.5,0,1,0,1.5-0.1c0.5-0.1,1-0.3,1.4-0.5s0.8-0.5,1-0.9c0.3-0.4,0.4-0.9,0.4-1.5c0-0.6-0.2-1.1-0.5-1.4
			c-0.3-0.4-0.7-0.7-1.2-0.9c-0.5-0.2-1.1-0.4-1.8-0.6c-0.7-0.1-1.3-0.3-2-0.4c-0.7-0.2-1.3-0.3-2-0.5c-0.7-0.2-1.2-0.5-1.8-0.8
			s-0.9-0.8-1.2-1.3c-0.3-0.5-0.5-1.2-0.5-2c0-0.9,0.2-1.6,0.5-2.2c0.4-0.6,0.8-1.2,1.4-1.6s1.2-0.7,2-0.9c0.7-0.2,1.5-0.3,2.3-0.3
			c0.9,0,1.7,0.1,2.4,0.3s1.4,0.5,2,1c0.6,0.4,1,1,1.3,1.7c0.3,0.7,0.5,1.5,0.5,2.4h-2.2C635.2,112.8,634.8,111.9,634,111.3z"/>
		<path class="st6" d="M645.8,110.9V109h13.7v1.9h-5.7v15.2h-2.3v-15.2H645.8z"/>
		<path class="st6" d="M666.4,109l6.7,17.1h-2.5l-1.9-5.2h-7.2l-1.9,5.2h-2.3l6.7-17.1H666.4z M668,119l-2.9-8h0l-2.9,8H668z"/>
		<path class="st6" d="M673.2,109h2.7l4.3,6.7l4.5-6.7h2.5l-5.7,8.3l6,8.8h-2.8l-4.6-7.1l-4.8,7.1h-2.5l6-8.8L673.2,109z"/>
	</g>
</g>
<g id="state-text" class="st3">
	<g class="st4">
		<rect x="564.3" y="80.3" class="st0" width="123.5" height="35"/>
		<path class="st5" d="M573.2,109.2c1.3,1.2,2.9,2,4.8,2.4V98.8c-1.7-0.4-3.2-0.9-4.4-1.4c-1.2-0.5-2.3-1.1-3.1-1.8
			c-0.8-0.7-1.4-1.5-1.8-2.5c-0.4-1-0.6-2.2-0.6-3.6c0-1.4,0.3-2.8,0.8-4c0.5-1.2,1.2-2.2,2.1-3.1c0.9-0.9,1.9-1.6,3.1-2.1
			c1.2-0.5,2.5-0.8,3.9-0.9v-3.2h2.6v3.2c2.6,0.3,4.7,1.3,6.2,2.9c1.5,1.6,2.6,3.8,3.3,6.6H586c-0.6-3.2-2.4-5-5.4-5.6v11.8l2.9,0.8
			c0.6,0.2,1.4,0.4,2.3,0.8c0.9,0.4,1.7,1,2.5,1.7c0.8,0.7,1.5,1.6,2,2.6c0.6,1.1,0.8,2.3,0.8,3.8c0,1.6-0.3,3-0.8,4.2
			c-0.5,1.2-1.3,2.3-2.2,3.1c-0.9,0.9-2,1.6-3.3,2.1c-1.3,0.5-2.7,0.8-4.2,1v3.9H578v-3.9c-3.2-0.3-5.7-1.4-7.6-3.3
			c-1.9-1.9-3-4.5-3.2-7.9h4.1C571.3,106.2,572,107.9,573.2,109.2z M574.1,85c-1.1,0.9-1.6,2.3-1.6,4.2c0,0.8,0.1,1.5,0.4,2.1
			c0.3,0.6,0.7,1.1,1.2,1.5c0.5,0.4,1.1,0.7,1.8,1c0.7,0.3,1.4,0.5,2.2,0.8V83.3C576.5,83.5,575.2,84,574.1,85z M583.1,111.1
			c0.8-0.3,1.4-0.6,2-1.1c0.6-0.5,1-1.1,1.3-1.9c0.3-0.8,0.5-1.6,0.5-2.7c0-0.9-0.2-1.7-0.5-2.3c-0.3-0.6-0.8-1.2-1.3-1.6
			c-0.5-0.4-1.2-0.8-2-1.1c-0.8-0.3-1.6-0.6-2.4-0.8v12C581.5,111.5,582.4,111.3,583.1,111.1z"/>
		<path class="st5" d="M594.7,94c0.1-1.3,0.2-2.7,0.5-3.9c0.3-1.3,0.6-2.5,1.1-3.6c0.5-1.2,1.1-2.2,2-3c0.8-0.9,1.9-1.6,3.1-2.1
			c1.3-0.5,2.8-0.8,4.5-0.8s3.3,0.3,4.5,0.8c1.3,0.5,2.3,1.2,3.1,2.1c0.8,0.9,1.5,1.9,2,3c0.5,1.2,0.8,2.4,1.1,3.6
			c0.3,1.3,0.4,2.6,0.5,3.9c0.1,1.3,0.1,2.6,0.1,3.9s0,2.5-0.1,3.9c-0.1,1.3-0.2,2.7-0.5,3.9c-0.3,1.3-0.6,2.5-1.1,3.6
			c-0.5,1.1-1.1,2.1-2,3c-0.8,0.9-1.9,1.5-3.1,2c-1.2,0.5-2.8,0.7-4.6,0.7c-1.8,0-3.3-0.2-4.5-0.7c-1.3-0.5-2.3-1.2-3.1-2
			c-0.8-0.9-1.5-1.9-2-3c-0.5-1.1-0.8-2.3-1.1-3.6c-0.3-1.3-0.4-2.6-0.5-3.9c-0.1-1.3-0.1-2.6-0.1-3.9S594.7,95.3,594.7,94z
			 M599.1,102.1c0.1,1.6,0.3,3.1,0.8,4.5c0.4,1.4,1.1,2.6,2.1,3.5c1,1,2.3,1.4,4,1.4c1.7,0,3.1-0.5,4-1.4s1.7-2.1,2.1-3.5
			c0.4-1.4,0.7-2.9,0.8-4.5c0.1-1.6,0.1-3,0.1-4.3c0-0.8,0-1.8,0-2.8c0-1-0.1-2-0.2-3c-0.1-1-0.4-2-0.6-3c-0.3-1-0.7-1.8-1.2-2.5
			c-0.5-0.7-1.2-1.3-2-1.8c-0.8-0.4-1.8-0.7-2.9-0.7c-1.2,0-2.1,0.2-2.9,0.7c-0.8,0.4-1.5,1-2,1.8c-0.5,0.7-0.9,1.6-1.2,2.5
			c-0.3,1-0.5,1.9-0.6,3c-0.1,1-0.2,2-0.2,3c0,1,0,1.9,0,2.8C599,99.1,599,100.5,599.1,102.1z"/>
		<path class="st5" d="M628.6,109.2v5.3h-5.3v-5.3H628.6z"/>
		<path class="st5" d="M634.8,94c0.1-1.3,0.2-2.7,0.5-3.9c0.3-1.3,0.6-2.5,1.1-3.6c0.5-1.2,1.1-2.2,2-3c0.8-0.9,1.9-1.6,3.1-2.1
			c1.3-0.5,2.8-0.8,4.5-0.8s3.3,0.3,4.5,0.8c1.3,0.5,2.3,1.2,3.1,2.1c0.8,0.9,1.5,1.9,2,3c0.5,1.2,0.8,2.4,1.1,3.6
			c0.3,1.3,0.4,2.6,0.5,3.9c0.1,1.3,0.1,2.6,0.1,3.9s0,2.5-0.1,3.9c-0.1,1.3-0.2,2.7-0.5,3.9c-0.3,1.3-0.6,2.5-1.1,3.6
			c-0.5,1.1-1.1,2.1-2,3c-0.8,0.9-1.9,1.5-3.1,2c-1.2,0.5-2.8,0.7-4.6,0.7c-1.8,0-3.3-0.2-4.5-0.7c-1.3-0.5-2.3-1.2-3.1-2
			c-0.8-0.9-1.5-1.9-2-3c-0.5-1.1-0.8-2.3-1.1-3.6c-0.3-1.3-0.4-2.6-0.5-3.9c-0.1-1.3-0.1-2.6-0.1-3.9S634.7,95.3,634.8,94z
			 M639.1,102.1c0.1,1.6,0.3,3.1,0.8,4.5c0.4,1.4,1.1,2.6,2.1,3.5c1,1,2.3,1.4,4,1.4c1.7,0,3.1-0.5,4-1.4s1.7-2.1,2.1-3.5
			c0.4-1.4,0.7-2.9,0.8-4.5c0.1-1.6,0.1-3,0.1-4.3c0-0.8,0-1.8,0-2.8c0-1-0.1-2-0.2-3c-0.1-1-0.4-2-0.6-3c-0.3-1-0.7-1.8-1.2-2.5
			c-0.5-0.7-1.2-1.3-2-1.8c-0.8-0.4-1.8-0.7-2.9-0.7c-1.2,0-2.1,0.2-2.9,0.7c-0.8,0.4-1.5,1-2,1.8c-0.5,0.7-0.9,1.6-1.2,2.5
			c-0.3,1-0.5,1.9-0.6,3c-0.1,1-0.2,2-0.2,3c0,1,0,1.9,0,2.8C639,99.1,639,100.5,639.1,102.1z"/>
		<path class="st5" d="M678.9,90.7c-1.5,2.3-2.8,4.8-4,7.5c-1.2,2.7-2.1,5.4-2.9,8.2c-0.7,2.8-1.2,5.6-1.3,8.2h-4.6
			c0.2-2.9,0.7-5.7,1.4-8.4c0.8-2.7,1.7-5.4,2.9-7.9c1.2-2.5,2.6-4.9,4.1-7.1c1.6-2.2,3.2-4.3,5-6.2h-17.9v-3.8h22v3.5
			C682.1,86.3,680.4,88.3,678.9,90.7z"/>
	</g>
	<g class="st4">
		<rect x="516.4" y="127.2" class="st0" width="219.2" height="22.4"/>
		<path class="st6" d="M529.5,129.6c-0.8-0.6-1.7-0.8-2.9-0.8c-0.5,0-1,0-1.4,0.1c-0.5,0.1-0.9,0.3-1.2,0.5
			c-0.4,0.2-0.6,0.5-0.9,0.9c-0.2,0.4-0.3,0.8-0.3,1.4c0,0.5,0.2,1,0.5,1.3c0.3,0.3,0.7,0.6,1.2,0.8c0.5,0.2,1.1,0.4,1.8,0.5
			s1.3,0.3,2,0.4c0.7,0.2,1.3,0.3,2,0.6s1.2,0.5,1.8,0.9c0.5,0.4,0.9,0.8,1.2,1.4c0.3,0.6,0.5,1.3,0.5,2.1c0,0.9-0.2,1.7-0.6,2.3
			c-0.4,0.6-0.9,1.2-1.6,1.6c-0.6,0.4-1.4,0.7-2.1,0.9c-0.8,0.2-1.6,0.3-2.4,0.3c-1,0-1.9-0.1-2.7-0.4c-0.9-0.2-1.6-0.6-2.3-1.1
			c-0.6-0.5-1.2-1.1-1.5-1.9c-0.4-0.8-0.6-1.7-0.6-2.7h2.2c0,0.7,0.1,1.3,0.4,1.9s0.6,0.9,1.1,1.3s1,0.6,1.6,0.7
			c0.6,0.2,1.2,0.2,1.9,0.2c0.5,0,1,0,1.5-0.1c0.5-0.1,1-0.3,1.4-0.5s0.8-0.5,1-0.9c0.3-0.4,0.4-0.9,0.4-1.5c0-0.6-0.2-1.1-0.5-1.4
			c-0.3-0.4-0.7-0.7-1.2-0.9c-0.5-0.2-1.1-0.4-1.8-0.6c-0.7-0.1-1.3-0.3-2-0.4c-0.7-0.2-1.3-0.3-2-0.5c-0.7-0.2-1.2-0.5-1.8-0.8
			s-0.9-0.8-1.2-1.3c-0.3-0.5-0.5-1.2-0.5-2c0-0.9,0.2-1.6,0.5-2.2c0.4-0.6,0.8-1.2,1.4-1.6s1.2-0.7,2-0.9c0.7-0.2,1.5-0.3,2.3-0.3
			c0.9,0,1.7,0.1,2.4,0.3s1.4,0.5,2,1c0.6,0.4,1,1,1.3,1.7c0.3,0.7,0.5,1.5,0.5,2.4h-2.2C530.7,131,530.3,130.1,529.5,129.6z"/>
		<path class="st6" d="M534.7,129.2v-1.9h13.7v1.9h-5.7v15.2h-2.3v-15.2H534.7z"/>
		<path class="st6" d="M555.2,127.2l6.7,17.1h-2.5l-1.9-5.2h-7.2l-1.9,5.2h-2.3l6.7-17.1H555.2z M556.8,137.3l-2.9-8h0l-2.9,8H556.8
			z"/>
		<path class="st6" d="M559.6,129.2v-1.9h13.7v1.9h-5.7v15.2h-2.3v-15.2H559.6z"/>
		<path class="st6" d="M587,127.2v1.9h-9.6v5.4h8.9v1.9h-8.9v5.9h9.6v1.9h-11.9v-17.1H587z"/>
		<path class="st6" d="M598.8,127.2v15.2h9.1v1.9h-11.4v-17.1H598.8z"/>
		<path class="st6" d="M612.2,127.2v17.1H610v-17.1H612.2z"/>
		<path class="st6" d="M627.4,143.8c-1.2,0.7-2.5,1-4.1,1c-1.4,0-2.6-0.2-3.6-0.7c-1-0.5-1.9-1.1-2.6-2c-0.7-0.8-1.2-1.8-1.5-2.9
			c-0.3-1.1-0.5-2.2-0.5-3.4s0.2-2.3,0.5-3.4s0.9-2,1.5-2.9c0.7-0.8,1.5-1.5,2.6-2c1-0.5,2.2-0.7,3.6-0.7c1.4,0,2.6,0.2,3.6,0.7
			c1,0.5,1.9,1.2,2.6,2c0.7,0.8,1.2,1.8,1.5,2.9c0.3,1.1,0.5,2.2,0.5,3.4c0,1.3-0.2,2.6-0.6,3.7c-0.4,1.2-1.1,2.2-1.9,3.1l2.3,1.8
			l-1.2,1.4L627.4,143.8z M627.3,141.3c0.7-0.7,1.2-1.5,1.5-2.5c0.3-1,0.5-2,0.5-3c0-0.9-0.1-1.7-0.3-2.6c-0.2-0.8-0.6-1.6-1.1-2.3
			c-0.5-0.7-1.1-1.2-1.8-1.6c-0.8-0.4-1.6-0.6-2.7-0.6s-1.9,0.2-2.7,0.6c-0.8,0.4-1.4,0.9-1.8,1.6s-0.8,1.4-1.1,2.3
			c-0.2,0.8-0.3,1.7-0.3,2.6c0,0.9,0.1,1.7,0.3,2.6c0.2,0.8,0.6,1.6,1.1,2.3c0.5,0.7,1.1,1.2,1.8,1.6s1.6,0.6,2.7,0.6
			c0.8,0,1.6-0.2,2.4-0.5l-1.9-1.5l1.2-1.4L627.3,141.3z"/>
		<path class="st6" d="M646.3,143.1c-1.2,1.1-2.8,1.6-5,1.6c-2.2,0-3.9-0.5-5.2-1.6c-1.2-1-1.9-2.7-1.9-5v-10.9h2.3v10.9
			c0,1.5,0.4,2.7,1.2,3.5c0.8,0.8,2,1.2,3.5,1.2c1.5,0,2.6-0.4,3.3-1.2s1.1-2,1.1-3.5v-10.9h2.3v10.9
			C648,140.4,647.4,142,646.3,143.1z"/>
		<path class="st6" d="M651.2,132.4c0.3-1.1,0.9-2,1.5-2.9c0.7-0.8,1.5-1.5,2.6-2c1-0.5,2.2-0.7,3.6-0.7c1.4,0,2.6,0.2,3.6,0.7
			c1,0.5,1.9,1.2,2.6,2c0.7,0.8,1.2,1.8,1.5,2.9c0.3,1.1,0.5,2.2,0.5,3.4s-0.2,2.3-0.5,3.4c-0.3,1.1-0.9,2-1.5,2.9
			c-0.7,0.8-1.5,1.5-2.6,2c-1,0.5-2.2,0.7-3.6,0.7c-1.4,0-2.6-0.2-3.6-0.7c-1-0.5-1.9-1.1-2.6-2c-0.7-0.8-1.2-1.8-1.5-2.9
			c-0.3-1.1-0.5-2.2-0.5-3.4S650.9,133.5,651.2,132.4z M653.3,138.4c0.2,0.8,0.6,1.6,1.1,2.3c0.5,0.7,1.1,1.2,1.8,1.6
			s1.6,0.6,2.7,0.6s1.9-0.2,2.7-0.6s1.4-0.9,1.8-1.6c0.5-0.7,0.8-1.4,1.1-2.3c0.2-0.8,0.3-1.7,0.3-2.6c0-0.9-0.1-1.7-0.3-2.6
			c-0.2-0.8-0.6-1.6-1.1-2.3c-0.5-0.7-1.1-1.2-1.8-1.6c-0.8-0.4-1.6-0.6-2.7-0.6s-1.9,0.2-2.7,0.6c-0.8,0.4-1.4,0.9-1.8,1.6
			s-0.8,1.4-1.1,2.3c-0.2,0.8-0.3,1.7-0.3,2.6C653,136.7,653.1,137.5,653.3,138.4z"/>
		<path class="st6" d="M678,127.2c1.6,0,2.9,0.4,3.8,1.2c0.9,0.8,1.4,1.9,1.4,3.3c0,1-0.2,2-0.7,2.7c-0.5,0.8-1.2,1.3-2.3,1.6v0
			c0.5,0.1,0.9,0.3,1.2,0.5c0.3,0.2,0.6,0.5,0.7,0.8c0.2,0.3,0.3,0.7,0.4,1c0.1,0.4,0.2,0.8,0.2,1.2c0,0.4,0.1,0.8,0.1,1.3
			c0,0.4,0.1,0.9,0.1,1.3c0.1,0.4,0.2,0.8,0.3,1.2c0.1,0.4,0.3,0.7,0.5,1h-2.5c-0.2-0.2-0.3-0.4-0.3-0.7c-0.1-0.3-0.1-0.6-0.1-1
			c0-0.4,0-0.8,0-1.2c0-0.4-0.1-0.9-0.1-1.3c-0.1-0.4-0.1-0.8-0.2-1.2c-0.1-0.4-0.2-0.7-0.5-1c-0.2-0.3-0.5-0.5-0.8-0.7
			c-0.3-0.2-0.8-0.3-1.3-0.3h-5.6v7.3h-2.3v-17.1H678z M678.4,135c0.5-0.1,0.9-0.2,1.3-0.5c0.4-0.2,0.6-0.5,0.9-0.9
			c0.2-0.4,0.3-0.9,0.3-1.5c0-0.9-0.2-1.6-0.7-2.1c-0.5-0.5-1.3-0.8-2.3-0.8h-5.7v6h4.8C677.5,135.1,678,135.1,678.4,135z"/>
		<path class="st6" d="M691.2,129.2v-1.9h13.7v1.9h-5.7v15.2h-2.3v-15.2H691.2z"/>
		<path class="st6" d="M711.7,127.2l6.7,17.1h-2.5l-1.9-5.2h-7.2l-1.9,5.2h-2.3l6.7-17.1H711.7z M713.3,137.3l-2.9-8h0l-2.9,8H713.3
			z"/>
		<path class="st6" d="M718.6,127.2h2.7l4.3,6.7l4.5-6.7h2.5l-5.7,8.3l6,8.8h-2.8l-4.6-7.1l-4.8,7.1h-2.5l6-8.8L718.6,127.2z"/>
	</g>
</g>
<g id="federal-text" class="st3">
	<g class="st4">
		<rect x="564.3" y="123.4" class="st0" width="123.5" height="35"/>
		<path class="st5" d="M573.2,152.3c1.3,1.2,2.9,2,4.8,2.4v-12.7c-1.7-0.4-3.2-0.9-4.4-1.4c-1.2-0.5-2.3-1.1-3.1-1.8
			c-0.8-0.7-1.4-1.5-1.8-2.5c-0.4-1-0.6-2.2-0.6-3.6c0-1.4,0.3-2.8,0.8-4c0.5-1.2,1.2-2.2,2.1-3.1c0.9-0.9,1.9-1.6,3.1-2.1
			c1.2-0.5,2.5-0.8,3.9-0.9v-3.2h2.6v3.2c2.6,0.3,4.7,1.3,6.2,2.9c1.5,1.6,2.6,3.8,3.3,6.6H586c-0.6-3.2-2.4-5-5.4-5.6v11.8l2.9,0.8
			c0.6,0.2,1.4,0.4,2.3,0.8c0.9,0.4,1.7,1,2.5,1.7c0.8,0.7,1.5,1.6,2,2.6c0.6,1.1,0.8,2.3,0.8,3.8c0,1.6-0.3,3-0.8,4.2
			c-0.5,1.2-1.3,2.3-2.2,3.1c-0.9,0.9-2,1.6-3.3,2.1c-1.3,0.5-2.7,0.8-4.2,1v3.9H578v-3.9c-3.2-0.3-5.7-1.4-7.6-3.3
			c-1.9-1.9-3-4.5-3.2-7.9h4.1C571.3,149.3,572,151,573.2,152.3z M574.1,128.1c-1.1,0.9-1.6,2.3-1.6,4.2c0,0.8,0.1,1.5,0.4,2.1
			c0.3,0.6,0.7,1.1,1.2,1.5c0.5,0.4,1.1,0.7,1.8,1c0.7,0.3,1.4,0.5,2.2,0.8v-11.2C576.5,126.6,575.2,127.1,574.1,128.1z
			 M583.1,154.2c0.8-0.3,1.4-0.6,2-1.1c0.6-0.5,1-1.1,1.3-1.9c0.3-0.8,0.5-1.6,0.5-2.7c0-0.9-0.2-1.7-0.5-2.3
			c-0.3-0.6-0.8-1.2-1.3-1.6c-0.5-0.4-1.2-0.8-2-1.1c-0.8-0.3-1.6-0.6-2.4-0.8v12C581.5,154.6,582.4,154.4,583.1,154.2z"/>
		<path class="st5" d="M594.7,137.1c0.1-1.3,0.2-2.7,0.5-3.9c0.3-1.3,0.6-2.5,1.1-3.6c0.5-1.2,1.1-2.2,2-3c0.8-0.9,1.9-1.6,3.1-2.1
			c1.3-0.5,2.8-0.8,4.5-0.8s3.3,0.3,4.5,0.8c1.3,0.5,2.3,1.2,3.1,2.1c0.8,0.9,1.5,1.9,2,3c0.5,1.2,0.8,2.4,1.1,3.6
			c0.3,1.3,0.4,2.6,0.5,3.9c0.1,1.3,0.1,2.6,0.1,3.9s0,2.5-0.1,3.9c-0.1,1.3-0.2,2.7-0.5,3.9c-0.3,1.3-0.6,2.5-1.1,3.6
			c-0.5,1.1-1.1,2.1-2,3c-0.8,0.9-1.9,1.5-3.1,2c-1.2,0.5-2.8,0.7-4.6,0.7c-1.8,0-3.3-0.2-4.5-0.7c-1.3-0.5-2.3-1.2-3.1-2
			c-0.8-0.9-1.5-1.9-2-3c-0.5-1.1-0.8-2.3-1.1-3.6c-0.3-1.3-0.4-2.6-0.5-3.9c-0.1-1.3-0.1-2.6-0.1-3.9S594.7,138.4,594.7,137.1z
			 M599.1,145.2c0.1,1.6,0.3,3.1,0.8,4.5c0.4,1.4,1.1,2.6,2.1,3.5c1,1,2.3,1.4,4,1.4c1.7,0,3.1-0.5,4-1.4s1.7-2.1,2.1-3.5
			c0.4-1.4,0.7-2.9,0.8-4.5c0.1-1.6,0.1-3,0.1-4.3c0-0.8,0-1.8,0-2.8c0-1-0.1-2-0.2-3c-0.1-1-0.4-2-0.6-3c-0.3-1-0.7-1.8-1.2-2.5
			c-0.5-0.7-1.2-1.3-2-1.8c-0.8-0.4-1.8-0.7-2.9-0.7c-1.2,0-2.1,0.2-2.9,0.7c-0.8,0.4-1.5,1-2,1.8c-0.5,0.7-0.9,1.6-1.2,2.5
			c-0.3,1-0.5,1.9-0.6,3c-0.1,1-0.2,2-0.2,3c0,1,0,1.9,0,2.8C599,142.2,599,143.6,599.1,145.2z"/>
		<path class="st5" d="M628.6,152.3v5.3h-5.3v-5.3H628.6z"/>
		<path class="st5" d="M645.7,157.7v-24.4h-8.8V130c1.2,0,2.3-0.1,3.4-0.3c1.1-0.2,2.1-0.5,3-1c0.9-0.5,1.6-1.1,2.2-2
			c0.6-0.8,1-1.9,1.2-3.2h3.1v34H645.7z"/>
		<path class="st5" d="M672.4,157.7v-24.4h-8.8V130c1.2,0,2.3-0.1,3.4-0.3c1.1-0.2,2.1-0.5,3-1c0.9-0.5,1.6-1.1,2.2-2
			c0.6-0.8,1-1.9,1.2-3.2h3.1v34H672.4z"/>
	</g>
	<g class="st4">
		<rect x="486.6" y="170.3" class="st0" width="278.8" height="22.4"/>
		<path class="st6" d="M514,170.3v1.9h-9v5.4h7.9v1.9H505v7.8h-2.3v-17.1H514z"/>
		<path class="st6" d="M528.3,170.3v1.9h-9.6v5.4h8.9v1.9h-8.9v5.9h9.6v1.9h-11.9v-17.1H528.3z"/>
		<path class="st6" d="M537.1,170.3c2.6,0,4.7,0.7,6.1,2c1.4,1.3,2.1,3.4,2.1,6.1c0,1.4-0.2,2.7-0.5,3.8c-0.3,1.1-0.8,2-1.5,2.8
			c-0.7,0.8-1.5,1.3-2.6,1.7c-1,0.4-2.3,0.6-3.7,0.6h-5.9v-17.1H537.1z M537.2,185.6c0.3,0,0.6,0,1-0.1c0.4,0,0.8-0.1,1.2-0.3
			c0.4-0.2,0.9-0.4,1.3-0.7c0.4-0.3,0.8-0.7,1.1-1.2c0.3-0.5,0.6-1.1,0.8-1.9c0.2-0.7,0.3-1.6,0.3-2.7c0-1-0.1-1.9-0.3-2.7
			c-0.2-0.8-0.5-1.5-1-2.1c-0.5-0.6-1-1-1.8-1.3c-0.7-0.3-1.6-0.4-2.7-0.4h-3.8v13.3H537.2z"/>
		<path class="st6" d="M559.9,170.3v1.9h-9.6v5.4h8.9v1.9h-8.9v5.9h9.6v1.9h-11.9v-17.1H559.9z"/>
		<path class="st6" d="M570.8,170.3c1.6,0,2.9,0.4,3.8,1.2c0.9,0.8,1.4,1.9,1.4,3.3c0,1-0.2,2-0.7,2.7c-0.5,0.8-1.2,1.3-2.3,1.6v0
			c0.5,0.1,0.9,0.3,1.2,0.5c0.3,0.2,0.6,0.5,0.7,0.8c0.2,0.3,0.3,0.7,0.4,1c0.1,0.4,0.2,0.8,0.2,1.2c0,0.4,0.1,0.8,0.1,1.3
			c0,0.4,0.1,0.9,0.1,1.3c0.1,0.4,0.2,0.8,0.3,1.2c0.1,0.4,0.3,0.7,0.5,1h-2.5c-0.2-0.2-0.3-0.4-0.3-0.7c-0.1-0.3-0.1-0.6-0.1-1
			c0-0.4,0-0.8,0-1.2c0-0.4-0.1-0.9-0.1-1.3c-0.1-0.4-0.1-0.8-0.2-1.2c-0.1-0.4-0.2-0.7-0.5-1c-0.2-0.3-0.5-0.5-0.8-0.7
			c-0.3-0.2-0.8-0.3-1.3-0.3H565v7.3h-2.3v-17.1H570.8z M571.3,178.1c0.5-0.1,0.9-0.2,1.3-0.5c0.4-0.2,0.6-0.5,0.9-0.9
			c0.2-0.4,0.3-0.9,0.3-1.5c0-0.9-0.2-1.6-0.7-2.1c-0.5-0.5-1.3-0.8-2.3-0.8H565v6h4.8C570.3,178.2,570.8,178.2,571.3,178.1z"/>
		<path class="st6" d="M586.3,170.3l6.7,17.1h-2.5l-1.9-5.2h-7.2l-1.9,5.2h-2.3l6.7-17.1H586.3z M587.9,180.4l-2.9-8h0l-2.9,8H587.9
			z"/>
		<path class="st6" d="M597,170.3v15.2h9.1v1.9h-11.4v-17.1H597z"/>
		<path class="st6" d="M617,170.3v15.2h9.1v1.9h-11.4v-17.1H617z"/>
		<path class="st6" d="M630.5,170.3v17.1h-2.3v-17.1H630.5z"/>
		<path class="st6" d="M645.7,186.9c-1.2,0.7-2.5,1-4.1,1c-1.4,0-2.6-0.2-3.6-0.7c-1-0.5-1.9-1.1-2.6-2c-0.7-0.8-1.2-1.8-1.5-2.9
			c-0.3-1.1-0.5-2.2-0.5-3.4s0.2-2.3,0.5-3.4s0.9-2,1.5-2.9c0.7-0.8,1.5-1.5,2.6-2c1-0.5,2.2-0.7,3.6-0.7c1.4,0,2.6,0.2,3.6,0.7
			c1,0.5,1.9,1.2,2.6,2c0.7,0.8,1.2,1.8,1.5,2.9c0.3,1.1,0.5,2.2,0.5,3.4c0,1.3-0.2,2.6-0.6,3.7c-0.4,1.2-1.1,2.2-1.9,3.1l2.3,1.8
			l-1.2,1.4L645.7,186.9z M645.5,184.4c0.7-0.7,1.2-1.5,1.5-2.5c0.3-1,0.5-2,0.5-3c0-0.9-0.1-1.7-0.3-2.6c-0.2-0.8-0.6-1.6-1.1-2.3
			c-0.5-0.7-1.1-1.2-1.8-1.6c-0.8-0.4-1.6-0.6-2.7-0.6s-1.9,0.2-2.7,0.6c-0.8,0.4-1.4,0.9-1.8,1.6s-0.8,1.4-1.1,2.3
			c-0.2,0.8-0.3,1.7-0.3,2.6c0,0.9,0.1,1.7,0.3,2.6c0.2,0.8,0.6,1.6,1.1,2.3c0.5,0.7,1.1,1.2,1.8,1.6s1.6,0.6,2.7,0.6
			c0.8,0,1.6-0.2,2.4-0.5L642,184l1.2-1.4L645.5,184.4z"/>
		<path class="st6" d="M664.5,186.2c-1.2,1.1-2.8,1.6-5,1.6c-2.2,0-3.9-0.5-5.2-1.6c-1.2-1-1.9-2.7-1.9-5v-10.9h2.3v10.9
			c0,1.5,0.4,2.7,1.2,3.5c0.8,0.8,2,1.2,3.5,1.2c1.5,0,2.6-0.4,3.3-1.2s1.1-2,1.1-3.5v-10.9h2.3v10.9
			C666.2,183.5,665.6,185.1,664.5,186.2z"/>
		<path class="st6" d="M669.4,175.5c0.3-1.1,0.9-2,1.5-2.9c0.7-0.8,1.5-1.5,2.6-2c1-0.5,2.2-0.7,3.6-0.7c1.4,0,2.6,0.2,3.6,0.7
			c1,0.5,1.9,1.2,2.6,2c0.7,0.8,1.2,1.8,1.5,2.9c0.3,1.1,0.5,2.2,0.5,3.4s-0.2,2.3-0.5,3.4c-0.3,1.1-0.9,2-1.5,2.9
			c-0.7,0.8-1.5,1.5-2.6,2c-1,0.5-2.2,0.7-3.6,0.7c-1.4,0-2.6-0.2-3.6-0.7c-1-0.5-1.9-1.1-2.6-2c-0.7-0.8-1.2-1.8-1.5-2.9
			c-0.3-1.1-0.5-2.2-0.5-3.4S669.1,176.6,669.4,175.5z M671.5,181.5c0.2,0.8,0.6,1.6,1.1,2.3c0.5,0.7,1.1,1.2,1.8,1.6
			s1.6,0.6,2.7,0.6s1.9-0.2,2.7-0.6s1.4-0.9,1.8-1.6c0.5-0.7,0.8-1.4,1.1-2.3c0.2-0.8,0.3-1.7,0.3-2.6c0-0.9-0.1-1.7-0.3-2.6
			c-0.2-0.8-0.6-1.6-1.1-2.3c-0.5-0.7-1.1-1.2-1.8-1.6c-0.8-0.4-1.6-0.6-2.7-0.6s-1.9,0.2-2.7,0.6c-0.8,0.4-1.4,0.9-1.8,1.6
			s-0.8,1.4-1.1,2.3c-0.2,0.8-0.3,1.7-0.3,2.6C671.2,179.8,671.3,180.6,671.5,181.5z"/>
		<path class="st6" d="M696.2,170.3c1.6,0,2.9,0.4,3.8,1.2c0.9,0.8,1.4,1.9,1.4,3.3c0,1-0.2,2-0.7,2.7c-0.5,0.8-1.2,1.3-2.3,1.6v0
			c0.5,0.1,0.9,0.3,1.2,0.5c0.3,0.2,0.6,0.5,0.7,0.8c0.2,0.3,0.3,0.7,0.4,1c0.1,0.4,0.2,0.8,0.2,1.2c0,0.4,0.1,0.8,0.1,1.3
			c0,0.4,0.1,0.9,0.1,1.3c0.1,0.4,0.2,0.8,0.3,1.2c0.1,0.4,0.3,0.7,0.5,1h-2.5c-0.2-0.2-0.3-0.4-0.3-0.7c-0.1-0.3-0.1-0.6-0.1-1
			c0-0.4,0-0.8,0-1.2c0-0.4-0.1-0.9-0.1-1.3c-0.1-0.4-0.1-0.8-0.2-1.2c-0.1-0.4-0.2-0.7-0.5-1c-0.2-0.3-0.5-0.5-0.8-0.7
			c-0.3-0.2-0.8-0.3-1.3-0.3h-5.6v7.3h-2.3v-17.1H696.2z M696.7,178.1c0.5-0.1,0.9-0.2,1.3-0.5c0.4-0.2,0.6-0.5,0.9-0.9
			c0.2-0.4,0.3-0.9,0.3-1.5c0-0.9-0.2-1.6-0.7-2.1c-0.5-0.5-1.3-0.8-2.3-0.8h-5.7v6h4.8C695.7,178.2,696.2,178.2,696.7,178.1z"/>
		<path class="st6" d="M709.4,172.3v-1.9h13.7v1.9h-5.7v15.2h-2.3v-15.2H709.4z"/>
		<path class="st6" d="M730,170.3l6.7,17.1h-2.5l-1.9-5.2H725l-1.9,5.2h-2.3l6.7-17.1H730z M731.5,180.4l-2.9-8h0l-2.9,8H731.5z"/>
		<path class="st6" d="M736.8,170.3h2.7l4.3,6.7l4.5-6.7h2.5l-5.7,8.3l6,8.8h-2.8l-4.6-7.1l-4.8,7.1h-2.5l6-8.8L736.8,170.3z"/>
	</g>
</g>
<g id="revenue-text" class="st3">
	<g class="st4">
		<rect x="564.3" y="302.1" class="st0" width="123.5" height="35"/>
		<path class="st5" d="M573.2,331c1.3,1.2,2.9,2,4.8,2.4v-12.7c-1.7-0.4-3.2-0.9-4.4-1.4c-1.2-0.5-2.3-1.1-3.1-1.8
			c-0.8-0.7-1.4-1.5-1.8-2.5c-0.4-1-0.6-2.2-0.6-3.6c0-1.4,0.3-2.8,0.8-4c0.5-1.2,1.2-2.2,2.1-3.1c0.9-0.9,1.9-1.6,3.1-2.1
			c1.2-0.5,2.5-0.8,3.9-0.9v-3.2h2.6v3.2c2.6,0.3,4.7,1.3,6.2,2.9c1.5,1.6,2.6,3.8,3.3,6.6H586c-0.6-3.2-2.4-5-5.4-5.6v11.8l2.9,0.8
			c0.6,0.2,1.4,0.4,2.3,0.8c0.9,0.4,1.7,1,2.5,1.7c0.8,0.7,1.5,1.6,2,2.6c0.6,1.1,0.8,2.3,0.8,3.8c0,1.6-0.3,3-0.8,4.2
			c-0.5,1.2-1.3,2.3-2.2,3.1c-0.9,0.9-2,1.6-3.3,2.1c-1.3,0.5-2.7,0.8-4.2,1v3.9H578v-3.9c-3.2-0.3-5.7-1.4-7.6-3.3
			c-1.9-1.9-3-4.5-3.2-7.9h4.1C571.3,328.1,572,329.8,573.2,331z M574.1,306.8c-1.1,0.9-1.6,2.3-1.6,4.2c0,0.8,0.1,1.5,0.4,2.1
			c0.3,0.6,0.7,1.1,1.2,1.5c0.5,0.4,1.1,0.7,1.8,1s1.4,0.5,2.2,0.8v-11.2C576.5,305.3,575.2,305.9,574.1,306.8z M583.1,332.9
			c0.8-0.3,1.4-0.6,2-1.1c0.6-0.5,1-1.1,1.3-1.9c0.3-0.8,0.5-1.6,0.5-2.7c0-0.9-0.2-1.7-0.5-2.3c-0.3-0.6-0.8-1.2-1.3-1.6
			c-0.5-0.4-1.2-0.8-2-1.1c-0.8-0.3-1.6-0.6-2.4-0.8v12C581.5,333.3,582.4,333.1,583.1,332.9z"/>
		<path class="st5" d="M605.6,336.4V312h-8.8v-3.3c1.2,0,2.3-0.1,3.4-0.3c1.1-0.2,2.1-0.5,3-1c0.9-0.5,1.6-1.1,2.2-2
			c0.6-0.8,1-1.9,1.2-3.2h3.1v34H605.6z"/>
		<path class="st5" d="M628.6,331.1v5.3h-5.3v-5.3H628.6z"/>
		<path class="st5" d="M635.3,309.6c0.4-1.5,1.1-2.7,2.1-3.8c0.9-1.1,2.1-1.9,3.5-2.5c1.4-0.6,3-0.9,4.8-0.9c1.5,0,2.9,0.2,4.2,0.6
			c1.3,0.4,2.4,1.1,3.4,1.9c1,0.8,1.7,1.8,2.3,3c0.6,1.2,0.8,2.6,0.8,4.2c0,1.5-0.2,2.8-0.7,4c-0.5,1.2-1.1,2.2-1.8,3.1
			s-1.6,1.7-2.6,2.5c-1,0.7-2,1.4-3.1,2.1c-1.1,0.6-2.1,1.3-3.2,1.9s-2,1.3-2.9,2c-0.9,0.7-1.6,1.5-2.3,2.3s-1,1.8-1.2,2.8H656v3.6
			h-22.2c0.2-2,0.5-3.7,1.1-5.2c0.6-1.4,1.3-2.7,2.1-3.7c0.9-1.1,1.8-2,2.9-2.8s2.2-1.6,3.4-2.3c1.4-0.9,2.7-1.7,3.8-2.5
			c1.1-0.8,2-1.5,2.7-2.3c0.7-0.8,1.3-1.6,1.6-2.5c0.4-0.9,0.6-1.9,0.6-3.1c0-0.9-0.2-1.8-0.5-2.5c-0.4-0.8-0.8-1.4-1.4-1.9
			c-0.6-0.5-1.3-1-2.1-1.2c-0.8-0.3-1.6-0.4-2.5-0.4c-1.2,0-2.2,0.2-3,0.7c-0.8,0.5-1.5,1.1-2.1,1.9s-0.9,1.7-1.2,2.7s-0.3,2-0.3,3
			h-4.1C634.7,312.7,634.9,311.1,635.3,309.6z"/>
		<path class="st5" d="M677.5,307.3c-1-0.9-2.3-1.4-3.9-1.4c-1.7,0-3.1,0.4-4.2,1.3c-1.1,0.8-1.9,1.9-2.5,3.2s-1,2.7-1.2,4.2
			c-0.2,1.5-0.4,2.9-0.4,4.2l0.1,0.1c1-1.6,2.2-2.7,3.6-3.4c1.4-0.7,3.1-1.1,4.9-1.1c1.6,0,3.1,0.3,4.4,0.8s2.4,1.3,3.3,2.3
			c0.9,1,1.6,2.2,2,3.5c0.5,1.3,0.7,2.8,0.7,4.4c0,1.2-0.2,2.5-0.6,3.9c-0.4,1.3-1,2.6-1.9,3.7c-0.9,1.1-2,2-3.5,2.7
			c-1.5,0.7-3.3,1.1-5.4,1.1c-2.5,0-4.6-0.5-6.1-1.5c-1.5-1-2.7-2.3-3.6-3.9c-0.8-1.6-1.4-3.4-1.7-5.3c-0.3-1.9-0.4-3.8-0.4-5.6
			c0-2.3,0.2-4.6,0.6-6.8c0.4-2.2,1.1-4.1,2-5.8c1-1.7,2.2-3.1,3.8-4.1c1.6-1,3.6-1.5,6-1.5c2.8,0,5.1,0.7,6.7,2.2
			c1.7,1.5,2.6,3.6,2.9,6.5h-4.1C679,309.5,678.4,308.3,677.5,307.3z M670.1,318.7c-0.9,0.4-1.6,0.9-2.2,1.6
			c-0.6,0.7-1.1,1.5-1.4,2.4c-0.3,0.9-0.5,1.9-0.5,3c0,1.1,0.2,2,0.5,3c0.3,0.9,0.8,1.7,1.4,2.4s1.3,1.2,2.2,1.6s1.9,0.6,3,0.6
			s2.1-0.2,3-0.6s1.6-1,2.1-1.7c0.6-0.7,1-1.5,1.3-2.4c0.3-0.9,0.5-1.9,0.5-2.9c0-1.1-0.1-2.1-0.4-3c-0.3-0.9-0.7-1.8-1.3-2.4
			s-1.3-1.2-2.2-1.7s-1.9-0.6-3-0.6C671.9,318.1,670.9,318.3,670.1,318.7z"/>
	</g>
	<g class="st4">
		<rect x="486.6" y="349.1" class="st0" width="278.8" height="22.4"/>
		<path class="st6" d="M581.1,349.1c1.6,0,2.9,0.4,3.8,1.2c0.9,0.8,1.4,1.9,1.4,3.3c0,1-0.2,2-0.7,2.7c-0.5,0.8-1.2,1.3-2.3,1.6v0
			c0.5,0.1,0.9,0.3,1.2,0.5c0.3,0.2,0.6,0.5,0.7,0.8c0.2,0.3,0.3,0.7,0.4,1c0.1,0.4,0.2,0.8,0.2,1.2c0,0.4,0.1,0.8,0.1,1.3
			c0,0.4,0.1,0.9,0.1,1.3c0.1,0.4,0.2,0.8,0.3,1.2s0.3,0.7,0.5,1h-2.5c-0.2-0.2-0.3-0.4-0.3-0.7c-0.1-0.3-0.1-0.6-0.1-1
			c0-0.4,0-0.8,0-1.2s-0.1-0.9-0.1-1.3c-0.1-0.4-0.1-0.8-0.2-1.2s-0.2-0.7-0.5-1c-0.2-0.3-0.5-0.5-0.8-0.7c-0.3-0.2-0.8-0.3-1.3-0.3
			h-5.6v7.3H573v-17.1H581.1z M581.5,356.8c0.5-0.1,0.9-0.2,1.3-0.5c0.4-0.2,0.6-0.5,0.9-0.9c0.2-0.4,0.3-0.9,0.3-1.5
			c0-0.9-0.2-1.6-0.7-2.1c-0.5-0.5-1.3-0.8-2.3-0.8h-5.7v6h4.8C580.6,357,581.1,356.9,581.5,356.8z"/>
		<path class="st6" d="M601.3,349.1v1.9h-9.6v5.4h8.9v1.9h-8.9v5.9h9.6v1.9h-11.9v-17.1H601.3z"/>
		<path class="st6" d="M608.2,366.2l-6-17.1h2.4l4.9,14.9h0l4.9-14.9h2.4l-6.1,17.1H608.2z"/>
		<path class="st6" d="M630.6,349.1v1.9H621v5.4h8.9v1.9H621v5.9h9.6v1.9h-11.9v-17.1H630.6z"/>
		<path class="st6" d="M635.8,349.1l9,13.9h0v-13.9h2.2v17.1h-2.5l-9-13.8h0v13.8h-2.2v-17.1H635.8z"/>
		<path class="st6" d="M662.7,364.9c-1.2,1.1-2.8,1.6-5,1.6c-2.2,0-3.9-0.5-5.2-1.6c-1.2-1-1.9-2.7-1.9-5v-10.9h2.3V360
			c0,1.5,0.4,2.7,1.2,3.5c0.8,0.8,2,1.2,3.5,1.2c1.5,0,2.6-0.4,3.3-1.2s1.1-2,1.1-3.5v-10.9h2.3V360
			C664.4,362.2,663.8,363.8,662.7,364.9z"/>
		<path class="st6" d="M679.9,349.1v1.9h-9.6v5.4h8.9v1.9h-8.9v5.9h9.6v1.9h-11.9v-17.1H679.9z"/>
	</g>
</g>
<g>
</g>
<g>
</g>
<g>
</g>
<g>
</g>
<g>
</g>
<g>
</g>
</svg>
