<?xml version="1.0" encoding="utf-8"?>
<!-- Generator: Adobe Illustrator 18.1.1, SVG Export Plug-In . SVG Version: 6.00 Build 0)  -->
<svg version="1.1" id="Layer_1" xmlns="http://www.w3.org/2000/svg" xmlns:xlink="http://www.w3.org/1999/xlink" x="0px" y="0px"
	 viewBox="0 0 792 612" enable-background="new 0 0 792 612" xml:space="preserve">
<polygon points="313.7,104.3 479.6,104.3 457.8,91.1 338.4,91.1 "/>
<rect x="313.7" y="125" width="165.9" height="31.2"/>
<path fill="#DCDDDE" d="M339.5,91h117.2c0.6,0,1.1-0.5,1.1-1.1v-3.4c0-0.6-0.5-1.1-1.1-1.1H339.5c-0.6,0-1.1,0.5-1.1,1.1V90
	C338.4,90.6,338.8,91,339.5,91z"/>
<path d="M313.7,123.1h165.8c0,0,0.1,0,0.1-0.1v-16.9c0,0,0-0.1-0.1-0.1H313.7c0,0-0.1,0-0.1,0.1L313.7,123.1
	C313.7,123.1,313.7,123.1,313.7,123.1z"/>
<path fill="#DCDDDE" d="M320.8,526h152.5c0.6,0,1.1-0.5,1.1-1.1v-3.2c0-0.6-0.5-1.1-1.1-1.1H320.8c-0.6,0-1.1,0.5-1.1,1.1v3.2
	C319.8,525.5,320.2,526,320.8,526z"/>
<g>
	<rect x="313.7" y="158.1" width="165.9" height="357.5"/>
	<polygon points="319.5,520.4 473.9,520.4 479.6,515.5 313.7,515.5 	"/>
</g>
</svg>
